<svg width="410" height="243" viewBox="0 0 410 243" fill="none" xmlns="http://www.w3.org/2000/svg">
<path d="M68.2596 12.7735C68.2596 12.7735 66.2699 7.46028 61.618 6.46265C56.9662 5.46502 55.139 8.28977 54.147 10.6437C53.155 12.9977 50.1621 11.1425 47.668 10.8063C45.1739 10.47 43.8512 12.9641 43.3524 14.7912C42.8536 16.6183 39.6982 13.9617 36.8734 15.6263C34.0487 17.2909 33.5555 19.4431 32.8885 19.9419C32.2216 20.4407 30.4 19.6112 29.4024 20.9395L28.4048 22.2678L80.3824 22.2678C80.3824 22.2678 82.0638 18.4454 78.886 15.6263C75.7082 12.8071 70.2548 17.0891 68.2596 12.7735Z" stroke="#263238" stroke-width="0.462161" stroke-miterlimit="10" stroke-linecap="round"/>
<path d="M36.986 33.4943C36.986 33.4943 35.6128 29.8288 32.4126 29.1394C29.2123 28.4501 27.9288 30.3949 27.2619 31.9978C26.5949 33.6007 24.51 32.3397 22.7781 32.1155C21.0463 31.8913 20.1439 33.6007 19.8021 34.8618C19.4602 36.1228 17.2856 34.3013 15.3183 35.4223C13.3511 36.5432 13.026 38.0565 12.572 38.3983C12.1181 38.7402 10.8514 38.1685 10.1676 39.0821L9.47827 40.0013L45.3425 40.0013C45.6564 39.2237 45.7259 38.3689 45.5416 37.5508C45.3574 36.7327 44.9282 35.9902 44.3113 35.4223C42.1198 33.4943 38.3591 36.4703 36.986 33.4943Z" stroke="#263238" stroke-width="0.462161" stroke-miterlimit="10" stroke-linecap="round"/>
<path d="M7.62915 139.653L27.4641 139.653L27.4641 82.0422L44.9338 82.0422L44.9338 55.1286L77.9901 55.1286L77.9901 108.485L86.4868 108.485L86.4868 4.99487L122.844 4.99487L122.844 50.4039L145.51 50.4039L145.51 11.2104L184.232 11.2104L184.232 99.5119L237.118 99.5119L237.118 46.7496L271.665 46.7496L271.665 99.9883L292.839 99.9883L292.839 106.125L306.061 106.125L306.061 64.9536L315.028 64.9536L315.028 106.125L321.171 106.125L321.171 62.6837L331.086 62.6837L331.086 104.237L343.365 104.237L343.365 34.3521L365.554 34.3521L365.554 80.1534L378.305 80.1534L378.305 11.6868L409.472 11.6868L409.472 150.038" stroke="#263238" stroke-width="0.462161" stroke-miterlimit="10" stroke-linecap="round"/>
<path d="M36.4309 91.4858L32.6533 91.4858L32.6533 96.2106L36.4309 96.2106L36.4309 91.4858Z" stroke="#263238" stroke-width="0.462161" stroke-miterlimit="10" stroke-linecap="round"/>
<path d="M42.5749 91.4858L38.7974 91.4858L38.7974 96.2106L42.5749 96.2106L42.5749 91.4858Z" stroke="#263238" stroke-width="0.462161" stroke-miterlimit="10" stroke-linecap="round"/>
<path d="M48.7114 91.4858L44.9338 91.4858L44.9338 96.2106L48.7114 96.2106L48.7114 91.4858Z" stroke="#263238" stroke-width="0.462161" stroke-miterlimit="10" stroke-linecap="round"/>
<path d="M54.8481 91.4858L51.0706 91.4858L51.0706 96.2106L54.8481 96.2106L54.8481 91.4858Z" stroke="#263238" stroke-width="0.462161" stroke-miterlimit="10" stroke-linecap="round"/>
<path d="M60.9921 91.4858L57.2146 91.4858L57.2146 96.2106L60.9921 96.2106L60.9921 91.4858Z" stroke="#263238" stroke-width="0.462161" stroke-miterlimit="10" stroke-linecap="round"/>
<path d="M67.1289 91.4858L63.3513 91.4858L63.3513 96.2106L67.1289 96.2106L67.1289 91.4858Z" stroke="#263238" stroke-width="0.462161" stroke-miterlimit="10" stroke-linecap="round"/>
<path d="M95.9316 56.5464L92.1541 56.5464L92.1541 61.2711L95.9316 61.2711L95.9316 56.5464Z" stroke="#263238" stroke-width="0.462161" stroke-miterlimit="10" stroke-linecap="round"/>
<path d="M102.068 56.5464L98.2908 56.5464L98.2908 61.2711L102.068 61.2711L102.068 56.5464Z" stroke="#263238" stroke-width="0.462161" stroke-miterlimit="10" stroke-linecap="round"/>
<path d="M108.211 56.5464L104.433 56.5464L104.433 61.2711L108.211 61.2711L108.211 56.5464Z" stroke="#263238" stroke-width="0.462161" stroke-miterlimit="10" stroke-linecap="round"/>
<path d="M114.347 56.5464L110.57 56.5464L110.57 61.2711L114.347 61.2711L114.347 56.5464Z" stroke="#263238" stroke-width="0.462161" stroke-miterlimit="10" stroke-linecap="round"/>
<path d="M95.9316 48.0444L92.1541 48.0444L92.1541 52.7692L95.9316 52.7692L95.9316 48.0444Z" stroke="#263238" stroke-width="0.462161" stroke-miterlimit="10" stroke-linecap="round"/>
<path d="M102.068 48.0444L98.2908 48.0444L98.2908 52.7692L102.068 52.7692L102.068 48.0444Z" stroke="#263238" stroke-width="0.462161" stroke-miterlimit="10" stroke-linecap="round"/>
<path d="M108.211 48.0444L104.433 48.0444L104.433 52.7692L108.211 52.7692L108.211 48.0444Z" stroke="#263238" stroke-width="0.462161" stroke-miterlimit="10" stroke-linecap="round"/>
<path d="M114.347 48.0444L110.57 48.0444L110.57 52.7692L114.347 52.7692L114.347 48.0444Z" stroke="#263238" stroke-width="0.462161" stroke-miterlimit="10" stroke-linecap="round"/>
<path d="M95.9316 39.5417L92.1541 39.5417L92.1541 44.2665L95.9316 44.2665L95.9316 39.5417Z" stroke="#263238" stroke-width="0.462161" stroke-miterlimit="10" stroke-linecap="round"/>
<path d="M102.068 39.5417L98.2908 39.5417L98.2908 44.2665L102.068 44.2665L102.068 39.5417Z" stroke="#263238" stroke-width="0.462161" stroke-miterlimit="10" stroke-linecap="round"/>
<path d="M108.211 39.5417L104.433 39.5417L104.433 44.2665L108.211 44.2665L108.211 39.5417Z" stroke="#263238" stroke-width="0.462161" stroke-miterlimit="10" stroke-linecap="round"/>
<path d="M114.347 39.5417L110.57 39.5417L110.57 44.2665L114.347 44.2665L114.347 39.5417Z" stroke="#263238" stroke-width="0.462161" stroke-miterlimit="10" stroke-linecap="round"/>
<path d="M95.9316 31.0447L92.1541 31.0447L92.1541 35.7694L95.9316 35.7694L95.9316 31.0447Z" stroke="#263238" stroke-width="0.462161" stroke-miterlimit="10" stroke-linecap="round"/>
<path d="M102.068 31.0447L98.2908 31.0447L98.2908 35.7694L102.068 35.7694L102.068 31.0447Z" stroke="#263238" stroke-width="0.462161" stroke-miterlimit="10" stroke-linecap="round"/>
<path d="M108.211 31.0447L104.433 31.0447L104.433 35.7694L108.211 35.7694L108.211 31.0447Z" stroke="#263238" stroke-width="0.462161" stroke-miterlimit="10" stroke-linecap="round"/>
<path d="M114.347 31.0447L110.57 31.0447L110.57 35.7694L114.347 35.7694L114.347 31.0447Z" stroke="#263238" stroke-width="0.462161" stroke-miterlimit="10" stroke-linecap="round"/>
<path d="M95.9316 22.5427L92.1541 22.5427L92.1541 27.2675L95.9316 27.2675L95.9316 22.5427Z" stroke="#263238" stroke-width="0.462161" stroke-miterlimit="10" stroke-linecap="round"/>
<path d="M102.068 22.5427L98.2908 22.5427L98.2908 27.2675L102.068 27.2675L102.068 22.5427Z" stroke="#263238" stroke-width="0.462161" stroke-miterlimit="10" stroke-linecap="round"/>
<path d="M108.211 22.5427L104.433 22.5427L104.433 27.2675L108.211 27.2675L108.211 22.5427Z" stroke="#263238" stroke-width="0.462161" stroke-miterlimit="10" stroke-linecap="round"/>
<path d="M114.347 22.5427L110.57 22.5427L110.57 27.2675L114.347 27.2675L114.347 22.5427Z" stroke="#263238" stroke-width="0.462161" stroke-miterlimit="10" stroke-linecap="round"/>
<path d="M120.486 56.5464L116.708 56.5464L116.708 61.2711L120.486 61.2711L120.486 56.5464Z" stroke="#263238" stroke-width="0.462161" stroke-miterlimit="10" stroke-linecap="round"/>
<path d="M126.622 56.5464L122.845 56.5464L122.845 61.2711L126.622 61.2711L126.622 56.5464Z" stroke="#263238" stroke-width="0.462161" stroke-miterlimit="10" stroke-linecap="round"/>
<path d="M95.9316 65.99L92.1541 65.99L92.1541 70.7147L95.9316 70.7147L95.9316 65.99Z" stroke="#263238" stroke-width="0.462161" stroke-miterlimit="10" stroke-linecap="round"/>
<path d="M102.068 65.99L98.2908 65.99L98.2908 70.7147L102.068 70.7147L102.068 65.99Z" stroke="#263238" stroke-width="0.462161" stroke-miterlimit="10" stroke-linecap="round"/>
<path d="M108.211 65.99L104.433 65.99L104.433 70.7147L108.211 70.7147L108.211 65.99Z" stroke="#263238" stroke-width="0.462161" stroke-miterlimit="10" stroke-linecap="round"/>
<path d="M114.347 65.99L110.57 65.99L110.57 70.7147L114.347 70.7147L114.347 65.99Z" stroke="#263238" stroke-width="0.462161" stroke-miterlimit="10" stroke-linecap="round"/>
<path d="M120.486 65.99L116.708 65.99L116.708 70.7147L120.486 70.7147L120.486 65.99Z" stroke="#263238" stroke-width="0.462161" stroke-miterlimit="10" stroke-linecap="round"/>
<path d="M126.622 65.99L122.845 65.99L122.845 70.7147L126.622 70.7147L126.622 65.99Z" stroke="#263238" stroke-width="0.462161" stroke-miterlimit="10" stroke-linecap="round"/>
<path d="M36.4309 101.4L32.6533 101.4L32.6533 106.125L36.4309 106.125L36.4309 101.4Z" stroke="#263238" stroke-width="0.462161" stroke-miterlimit="10" stroke-linecap="round"/>
<path d="M42.5749 101.4L38.7974 101.4L38.7974 106.125L42.5749 106.125L42.5749 101.4Z" stroke="#263238" stroke-width="0.462161" stroke-miterlimit="10" stroke-linecap="round"/>
<path d="M48.7114 101.4L44.9338 101.4L44.9338 106.125L48.7114 106.125L48.7114 101.4Z" stroke="#263238" stroke-width="0.462161" stroke-miterlimit="10" stroke-linecap="round"/>
<path d="M54.8481 101.4L51.0706 101.4L51.0706 106.125L54.8481 106.125L54.8481 101.4Z" stroke="#263238" stroke-width="0.462161" stroke-miterlimit="10" stroke-linecap="round"/>
<path d="M60.9921 101.4L57.2146 101.4L57.2146 106.125L60.9921 106.125L60.9921 101.4Z" stroke="#263238" stroke-width="0.462161" stroke-miterlimit="10" stroke-linecap="round"/>
<path d="M67.1289 101.4L63.3513 101.4L63.3513 106.125L67.1289 106.125L67.1289 101.4Z" stroke="#263238" stroke-width="0.462161" stroke-miterlimit="10" stroke-linecap="round"/>
<path d="M36.4309 111.321L32.6533 111.321L32.6533 116.046L36.4309 116.046L36.4309 111.321Z" stroke="#263238" stroke-width="0.462161" stroke-miterlimit="10" stroke-linecap="round"/>
<path d="M42.5749 111.321L38.7974 111.321L38.7974 116.046L42.5749 116.046L42.5749 111.321Z" stroke="#263238" stroke-width="0.462161" stroke-miterlimit="10" stroke-linecap="round"/>
<path d="M48.7114 111.321L44.9338 111.321L44.9338 116.046L48.7114 116.046L48.7114 111.321Z" stroke="#263238" stroke-width="0.462161" stroke-miterlimit="10" stroke-linecap="round"/>
<path d="M54.8481 111.321L51.0706 111.321L51.0706 116.046L54.8481 116.046L54.8481 111.321Z" stroke="#263238" stroke-width="0.462161" stroke-miterlimit="10" stroke-linecap="round"/>
<path d="M60.9921 111.321L57.2146 111.321L57.2146 116.046L60.9921 116.046L60.9921 111.321Z" stroke="#263238" stroke-width="0.462161" stroke-miterlimit="10" stroke-linecap="round"/>
<path d="M67.1289 111.321L63.3513 111.321L63.3513 116.046L67.1289 116.046L67.1289 111.321Z" stroke="#263238" stroke-width="0.462161" stroke-miterlimit="10" stroke-linecap="round"/>
<path d="M36.4309 121.235L32.6533 121.235L32.6533 125.96L36.4309 125.96L36.4309 121.235Z" stroke="#263238" stroke-width="0.462161" stroke-miterlimit="10" stroke-linecap="round"/>
<path d="M42.5749 121.235L38.7974 121.235L38.7974 125.96L42.5749 125.96L42.5749 121.235Z" stroke="#263238" stroke-width="0.462161" stroke-miterlimit="10" stroke-linecap="round"/>
<path d="M48.7114 121.235L44.9338 121.235L44.9338 125.96L48.7114 125.96L48.7114 121.235Z" stroke="#263238" stroke-width="0.462161" stroke-miterlimit="10" stroke-linecap="round"/>
<path d="M54.8481 121.235L51.0706 121.235L51.0706 125.96L54.8481 125.96L54.8481 121.235Z" stroke="#263238" stroke-width="0.462161" stroke-miterlimit="10" stroke-linecap="round"/>
<path d="M60.9921 121.235L57.2146 121.235L57.2146 125.96L60.9921 125.96L60.9921 121.235Z" stroke="#263238" stroke-width="0.462161" stroke-miterlimit="10" stroke-linecap="round"/>
<path d="M67.1289 121.235L63.3513 121.235L63.3513 125.96L67.1289 125.96L67.1289 121.235Z" stroke="#263238" stroke-width="0.462161" stroke-miterlimit="10" stroke-linecap="round"/>
<path d="M36.4309 131.15L32.6533 131.15L32.6533 135.875L36.4309 135.875L36.4309 131.15Z" stroke="#263238" stroke-width="0.462161" stroke-miterlimit="10" stroke-linecap="round"/>
<path d="M42.5749 131.15L38.7974 131.15L38.7974 135.875L42.5749 135.875L42.5749 131.15Z" stroke="#263238" stroke-width="0.462161" stroke-miterlimit="10" stroke-linecap="round"/>
<path d="M48.7114 131.15L44.9338 131.15L44.9338 135.875L48.7114 135.875L48.7114 131.15Z" stroke="#263238" stroke-width="0.462161" stroke-miterlimit="10" stroke-linecap="round"/>
<path d="M54.8481 131.15L51.0706 131.15L51.0706 135.875L54.8481 135.875L54.8481 131.15Z" stroke="#263238" stroke-width="0.462161" stroke-miterlimit="10" stroke-linecap="round"/>
<path d="M60.9921 131.15L57.2146 131.15L57.2146 135.875L60.9921 135.875L60.9921 131.15Z" stroke="#263238" stroke-width="0.462161" stroke-miterlimit="10" stroke-linecap="round"/>
<path d="M67.1289 131.15L63.3513 131.15L63.3513 135.875L67.1289 135.875L67.1289 131.15Z" stroke="#263238" stroke-width="0.462161" stroke-miterlimit="10" stroke-linecap="round"/>
<path d="M393.887 21.6018L390.109 21.6018L390.109 26.3265L393.887 26.3265L393.887 21.6018Z" stroke="#263238" stroke-width="0.462161" stroke-miterlimit="10" stroke-linecap="round"/>
<path d="M400.029 21.6018L396.251 21.6018L396.251 26.3265L400.029 26.3265L400.029 21.6018Z" stroke="#263238" stroke-width="0.462161" stroke-miterlimit="10" stroke-linecap="round"/>
<path d="M406.166 21.6018L402.388 21.6018L402.388 26.3265L406.166 26.3265L406.166 21.6018Z" stroke="#263238" stroke-width="0.462161" stroke-miterlimit="10" stroke-linecap="round"/>
<path d="M393.887 33.405L390.109 33.405L390.109 38.1298L393.887 38.1298L393.887 33.405Z" stroke="#263238" stroke-width="0.462161" stroke-miterlimit="10" stroke-linecap="round"/>
<path d="M400.029 33.405L396.251 33.405L396.251 38.1298L400.029 38.1298L400.029 33.405Z" stroke="#263238" stroke-width="0.462161" stroke-miterlimit="10" stroke-linecap="round"/>
<path d="M406.166 33.405L402.388 33.405L402.388 38.1298L406.166 38.1298L406.166 33.405Z" stroke="#263238" stroke-width="0.462161" stroke-miterlimit="10" stroke-linecap="round"/>
<path d="M393.887 45.2139L390.109 45.2139L390.109 49.9386L393.887 49.9386L393.887 45.2139Z" stroke="#263238" stroke-width="0.462161" stroke-miterlimit="10" stroke-linecap="round"/>
<path d="M400.029 45.2139L396.251 45.2139L396.251 49.9386L400.029 49.9386L400.029 45.2139Z" stroke="#263238" stroke-width="0.462161" stroke-miterlimit="10" stroke-linecap="round"/>
<path d="M406.166 45.2139L402.388 45.2139L402.388 49.9386L406.166 49.9386L406.166 45.2139Z" stroke="#263238" stroke-width="0.462161" stroke-miterlimit="10" stroke-linecap="round"/>
<path d="M393.887 57.0171L390.109 57.0171L390.109 61.7418L393.887 61.7418L393.887 57.0171Z" stroke="#263238" stroke-width="0.462161" stroke-miterlimit="10" stroke-linecap="round"/>
<path d="M400.029 57.0171L396.251 57.0171L396.251 61.7418L400.029 61.7418L400.029 57.0171Z" stroke="#263238" stroke-width="0.462161" stroke-miterlimit="10" stroke-linecap="round"/>
<path d="M406.166 57.0171L402.388 57.0171L402.388 61.7418L406.166 61.7418L406.166 57.0171Z" stroke="#263238" stroke-width="0.462161" stroke-miterlimit="10" stroke-linecap="round"/>
<path d="M393.887 68.821L390.109 68.821L390.109 73.5458L393.887 73.5458L393.887 68.821Z" stroke="#263238" stroke-width="0.462161" stroke-miterlimit="10" stroke-linecap="round"/>
<path d="M400.029 68.821L396.251 68.821L396.251 73.5458L400.029 73.5458L400.029 68.821Z" stroke="#263238" stroke-width="0.462161" stroke-miterlimit="10" stroke-linecap="round"/>
<path d="M406.166 68.821L402.388 68.821L402.388 73.5458L406.166 73.5458L406.166 68.821Z" stroke="#263238" stroke-width="0.462161" stroke-miterlimit="10" stroke-linecap="round"/>
<path d="M393.887 80.6243L390.109 80.6243L390.109 85.349L393.887 85.349L393.887 80.6243Z" stroke="#263238" stroke-width="0.462161" stroke-miterlimit="10" stroke-linecap="round"/>
<path d="M400.029 80.6243L396.251 80.6243L396.251 85.349L400.029 85.349L400.029 80.6243Z" stroke="#263238" stroke-width="0.462161" stroke-miterlimit="10" stroke-linecap="round"/>
<path d="M406.166 80.6243L402.388 80.6243L402.388 85.349L406.166 85.349L406.166 80.6243Z" stroke="#263238" stroke-width="0.462161" stroke-miterlimit="10" stroke-linecap="round"/>
<path d="M393.887 92.4333L390.109 92.4333L390.109 97.1581L393.887 97.1581L393.887 92.4333Z" stroke="#263238" stroke-width="0.462161" stroke-miterlimit="10" stroke-linecap="round"/>
<path d="M400.029 92.4333L396.251 92.4333L396.251 97.1581L400.029 97.1581L400.029 92.4333Z" stroke="#263238" stroke-width="0.462161" stroke-miterlimit="10" stroke-linecap="round"/>
<path d="M406.166 92.4333L402.388 92.4333L402.388 97.1581L406.166 97.1581L406.166 92.4333Z" stroke="#263238" stroke-width="0.462161" stroke-miterlimit="10" stroke-linecap="round"/>
<path d="M393.887 104.237L390.109 104.237L390.109 108.961L393.887 108.961L393.887 104.237Z" stroke="#263238" stroke-width="0.462161" stroke-miterlimit="10" stroke-linecap="round"/>
<path d="M400.029 104.237L396.251 104.237L396.251 108.961L400.029 108.961L400.029 104.237Z" stroke="#263238" stroke-width="0.462161" stroke-miterlimit="10" stroke-linecap="round"/>
<path d="M406.166 104.237L402.388 104.237L402.388 108.961L406.166 108.961L406.166 104.237Z" stroke="#263238" stroke-width="0.462161" stroke-miterlimit="10" stroke-linecap="round"/>
<path d="M393.887 116.04L390.109 116.04L390.109 120.765L393.887 120.765L393.887 116.04Z" stroke="#263238" stroke-width="0.462161" stroke-miterlimit="10" stroke-linecap="round"/>
<path d="M400.029 116.04L396.251 116.04L396.251 120.765L400.029 120.765L400.029 116.04Z" stroke="#263238" stroke-width="0.462161" stroke-miterlimit="10" stroke-linecap="round"/>
<path d="M353.7 45.2139L349.923 45.2139L349.923 49.9386L353.7 49.9386L353.7 45.2139Z" stroke="#263238" stroke-width="0.462161" stroke-miterlimit="10" stroke-linecap="round"/>
<path d="M359.838 45.2139L356.061 45.2139L356.061 49.9386L359.838 49.9386L359.838 45.2139Z" stroke="#263238" stroke-width="0.462161" stroke-miterlimit="10" stroke-linecap="round"/>
<path d="M353.7 57.0171L349.923 57.0171L349.923 61.7418L353.7 61.7418L353.7 57.0171Z" stroke="#263238" stroke-width="0.462161" stroke-miterlimit="10" stroke-linecap="round"/>
<path d="M359.838 57.0171L356.061 57.0171L356.061 61.7418L359.838 61.7418L359.838 57.0171Z" stroke="#263238" stroke-width="0.462161" stroke-miterlimit="10" stroke-linecap="round"/>
<path d="M353.7 68.821L349.923 68.821L349.923 73.5458L353.7 73.5458L353.7 68.821Z" stroke="#263238" stroke-width="0.462161" stroke-miterlimit="10" stroke-linecap="round"/>
<path d="M359.838 68.821L356.061 68.821L356.061 73.5458L359.838 73.5458L359.838 68.821Z" stroke="#263238" stroke-width="0.462161" stroke-miterlimit="10" stroke-linecap="round"/>
<path d="M353.7 80.6243L349.923 80.6243L349.923 85.349L353.7 85.349L353.7 80.6243Z" stroke="#263238" stroke-width="0.462161" stroke-miterlimit="10" stroke-linecap="round"/>
<path d="M359.838 80.6243L356.061 80.6243L356.061 85.349L359.838 85.349L359.838 80.6243Z" stroke="#263238" stroke-width="0.462161" stroke-miterlimit="10" stroke-linecap="round"/>
<path d="M353.7 92.4333L349.923 92.4333L349.923 97.1581L353.7 97.1581L353.7 92.4333Z" stroke="#263238" stroke-width="0.462161" stroke-miterlimit="10" stroke-linecap="round"/>
<path d="M359.838 92.4333L356.061 92.4333L356.061 97.1581L359.838 97.1581L359.838 92.4333Z" stroke="#263238" stroke-width="0.462161" stroke-miterlimit="10" stroke-linecap="round"/>
<path d="M353.7 104.237L349.923 104.237L349.923 108.961L353.7 108.961L353.7 104.237Z" stroke="#263238" stroke-width="0.462161" stroke-miterlimit="10" stroke-linecap="round"/>
<path d="M359.838 104.237L356.061 104.237L356.061 108.961L359.838 108.961L359.838 104.237Z" stroke="#263238" stroke-width="0.462161" stroke-miterlimit="10" stroke-linecap="round"/>
<path d="M353.7 116.04L349.923 116.04L349.923 120.765L353.7 120.765L353.7 116.04Z" stroke="#263238" stroke-width="0.462161" stroke-miterlimit="10" stroke-linecap="round"/>
<path d="M359.838 116.04L356.061 116.04L356.061 120.765L359.838 120.765L359.838 116.04Z" stroke="#263238" stroke-width="0.462161" stroke-miterlimit="10" stroke-linecap="round"/>
<path d="M245.508 57.0171L241.73 57.0171L241.73 61.7418L245.508 61.7418L245.508 57.0171Z" stroke="#263238" stroke-width="0.462161" stroke-miterlimit="10" stroke-linecap="round"/>
<path d="M251.651 57.0171L247.873 57.0171L247.873 61.7418L251.651 61.7418L251.651 57.0171Z" stroke="#263238" stroke-width="0.462161" stroke-miterlimit="10" stroke-linecap="round"/>
<path d="M245.508 68.821L241.73 68.821L241.73 73.5458L245.508 73.5458L245.508 68.821Z" stroke="#263238" stroke-width="0.462161" stroke-miterlimit="10" stroke-linecap="round"/>
<path d="M251.651 68.821L247.873 68.821L247.873 73.5458L251.651 73.5458L251.651 68.821Z" stroke="#263238" stroke-width="0.462161" stroke-miterlimit="10" stroke-linecap="round"/>
<path d="M245.508 80.6243L241.73 80.6243L241.73 85.349L245.508 85.349L245.508 80.6243Z" stroke="#263238" stroke-width="0.462161" stroke-miterlimit="10" stroke-linecap="round"/>
<path d="M251.651 80.6243L247.873 80.6243L247.873 85.349L251.651 85.349L251.651 80.6243Z" stroke="#263238" stroke-width="0.462161" stroke-miterlimit="10" stroke-linecap="round"/>
<path d="M245.508 92.4333L241.73 92.4333L241.73 97.1581L245.508 97.1581L245.508 92.4333Z" stroke="#263238" stroke-width="0.462161" stroke-miterlimit="10" stroke-linecap="round"/>
<path d="M251.651 92.4333L247.873 92.4333L247.873 97.1581L251.651 97.1581L251.651 92.4333Z" stroke="#263238" stroke-width="0.462161" stroke-miterlimit="10" stroke-linecap="round"/>
<path d="M245.508 104.237L241.73 104.237L241.73 108.961L245.508 108.961L245.508 104.237Z" stroke="#263238" stroke-width="0.462161" stroke-miterlimit="10" stroke-linecap="round"/>
<path d="M251.651 104.237L247.873 104.237L247.873 108.961L251.651 108.961L251.651 104.237Z" stroke="#263238" stroke-width="0.462161" stroke-miterlimit="10" stroke-linecap="round"/>
<path d="M245.508 116.04L241.73 116.04L241.73 120.765L245.508 120.765L245.508 116.04Z" stroke="#263238" stroke-width="0.462161" stroke-miterlimit="10" stroke-linecap="round"/>
<path d="M251.651 116.04L247.873 116.04L247.873 120.765L251.651 120.765L251.651 116.04Z" stroke="#263238" stroke-width="0.462161" stroke-miterlimit="10" stroke-linecap="round"/>
<path d="M259.413 57.0171L255.636 57.0171L255.636 61.7418L259.413 61.7418L259.413 57.0171Z" stroke="#263238" stroke-width="0.462161" stroke-miterlimit="10" stroke-linecap="round"/>
<path d="M265.551 57.0171L261.774 57.0171L261.774 61.7418L265.551 61.7418L265.551 57.0171Z" stroke="#263238" stroke-width="0.462161" stroke-miterlimit="10" stroke-linecap="round"/>
<path d="M259.413 68.821L255.636 68.821L255.636 73.5458L259.413 73.5458L259.413 68.821Z" stroke="#263238" stroke-width="0.462161" stroke-miterlimit="10" stroke-linecap="round"/>
<path d="M265.551 68.821L261.774 68.821L261.774 73.5458L265.551 73.5458L265.551 68.821Z" stroke="#263238" stroke-width="0.462161" stroke-miterlimit="10" stroke-linecap="round"/>
<path d="M259.413 80.6243L255.636 80.6243L255.636 85.349L259.413 85.349L259.413 80.6243Z" stroke="#263238" stroke-width="0.462161" stroke-miterlimit="10" stroke-linecap="round"/>
<path d="M265.551 80.6243L261.774 80.6243L261.774 85.349L265.551 85.349L265.551 80.6243Z" stroke="#263238" stroke-width="0.462161" stroke-miterlimit="10" stroke-linecap="round"/>
<path d="M259.413 92.4333L255.636 92.4333L255.636 97.1581L259.413 97.1581L259.413 92.4333Z" stroke="#263238" stroke-width="0.462161" stroke-miterlimit="10" stroke-linecap="round"/>
<path d="M265.551 92.4333L261.774 92.4333L261.774 97.1581L265.551 97.1581L265.551 92.4333Z" stroke="#263238" stroke-width="0.462161" stroke-miterlimit="10" stroke-linecap="round"/>
<path d="M259.413 104.237L255.636 104.237L255.636 108.961L259.413 108.961L259.413 104.237Z" stroke="#263238" stroke-width="0.462161" stroke-miterlimit="10" stroke-linecap="round"/>
<path d="M265.551 104.237L261.774 104.237L261.774 108.961L265.551 108.961L265.551 104.237Z" stroke="#263238" stroke-width="0.462161" stroke-miterlimit="10" stroke-linecap="round"/>
<path d="M259.413 116.04L255.636 116.04L255.636 120.765L259.413 120.765L259.413 116.04Z" stroke="#263238" stroke-width="0.462161" stroke-miterlimit="10" stroke-linecap="round"/>
<path d="M265.551 116.04L261.774 116.04L261.774 120.765L265.551 120.765L265.551 116.04Z" stroke="#263238" stroke-width="0.462161" stroke-miterlimit="10" stroke-linecap="round"/>
<path d="M162.919 21.6018L159.141 21.6018L159.141 26.3265L162.919 26.3265L162.919 21.6018Z" stroke="#263238" stroke-width="0.462161" stroke-miterlimit="10" stroke-linecap="round"/>
<path d="M169.054 21.6018L165.276 21.6018L165.276 26.3265L169.054 26.3265L169.054 21.6018Z" stroke="#263238" stroke-width="0.462161" stroke-miterlimit="10" stroke-linecap="round"/>
<path d="M162.919 33.405L159.141 33.405L159.141 38.1298L162.919 38.1298L162.919 33.405Z" stroke="#263238" stroke-width="0.462161" stroke-miterlimit="10" stroke-linecap="round"/>
<path d="M169.054 33.405L165.276 33.405L165.276 38.1298L169.054 38.1298L169.054 33.405Z" stroke="#263238" stroke-width="0.462161" stroke-miterlimit="10" stroke-linecap="round"/>
<path d="M162.919 45.2139L159.141 45.2139L159.141 49.9386L162.919 49.9386L162.919 45.2139Z" stroke="#263238" stroke-width="0.462161" stroke-miterlimit="10" stroke-linecap="round"/>
<path d="M169.054 45.2139L165.276 45.2139L165.276 49.9386L169.054 49.9386L169.054 45.2139Z" stroke="#263238" stroke-width="0.462161" stroke-miterlimit="10" stroke-linecap="round"/>
<path d="M162.919 57.0171L159.141 57.0171L159.141 61.7418L162.919 61.7418L162.919 57.0171Z" stroke="#263238" stroke-width="0.462161" stroke-miterlimit="10" stroke-linecap="round"/>
<path d="M169.054 57.0171L165.276 57.0171L165.276 61.7418L169.054 61.7418L169.054 57.0171Z" stroke="#263238" stroke-width="0.462161" stroke-miterlimit="10" stroke-linecap="round"/>
<path d="M162.919 68.821L159.141 68.821L159.141 73.5458L162.919 73.5458L162.919 68.821Z" stroke="#263238" stroke-width="0.462161" stroke-miterlimit="10" stroke-linecap="round"/>
<path d="M169.054 68.821L165.276 68.821L165.276 73.5458L169.054 73.5458L169.054 68.821Z" stroke="#263238" stroke-width="0.462161" stroke-miterlimit="10" stroke-linecap="round"/>
<path d="M162.919 80.6243L159.141 80.6243L159.141 85.349L162.919 85.349L162.919 80.6243Z" stroke="#263238" stroke-width="0.462161" stroke-miterlimit="10" stroke-linecap="round"/>
<path d="M169.054 80.6243L165.276 80.6243L165.276 85.349L169.054 85.349L169.054 80.6243Z" stroke="#263238" stroke-width="0.462161" stroke-miterlimit="10" stroke-linecap="round"/>
<path d="M162.919 92.4333L159.141 92.4333L159.141 97.1581L162.919 97.1581L162.919 92.4333Z" stroke="#263238" stroke-width="0.462161" stroke-miterlimit="10" stroke-linecap="round"/>
<path d="M169.054 92.4333L165.276 92.4333L165.276 97.1581L169.054 97.1581L169.054 92.4333Z" stroke="#263238" stroke-width="0.462161" stroke-miterlimit="10" stroke-linecap="round"/>
<path d="M162.919 104.237L159.141 104.237L159.141 108.961L162.919 108.961L162.919 104.237Z" stroke="#263238" stroke-width="0.462161" stroke-miterlimit="10" stroke-linecap="round"/>
<path d="M169.054 104.237L165.276 104.237L165.276 108.961L169.054 108.961L169.054 104.237Z" stroke="#263238" stroke-width="0.462161" stroke-miterlimit="10" stroke-linecap="round"/>
<path d="M162.919 116.04L159.141 116.04L159.141 120.765L162.919 120.765L162.919 116.04Z" stroke="#263238" stroke-width="0.462161" stroke-miterlimit="10" stroke-linecap="round"/>
<path d="M169.054 116.04L165.276 116.04L165.276 120.765L169.054 120.765L169.054 116.04Z" stroke="#263238" stroke-width="0.462161" stroke-miterlimit="10" stroke-linecap="round"/>
<path d="M406.166 116.04L402.388 116.04L402.388 120.765L406.166 120.765L406.166 116.04Z" stroke="#263238" stroke-width="0.462161" stroke-miterlimit="10" stroke-linecap="round"/>
<path d="M406.02 242.839L0.231201 242.839" stroke="#263238" stroke-width="0.462161" stroke-miterlimit="10" stroke-linecap="round"/>
<path d="M375.475 49.7085L162.139 49.7085L162.139 242.84L375.475 242.84L375.475 49.7085Z" fill="#263238" stroke="#263238" stroke-width="0.462161" stroke-miterlimit="10" stroke-linecap="round"/>
<path d="M186.335 50.1123L176.566 50.1123L176.566 242.358L186.335 242.358L186.335 50.1123Z" fill="#C9C9C9" stroke="#263238" stroke-width="0.462161" stroke-miterlimit="10" stroke-linecap="round"/>
<path d="M195.639 50.1123L185.87 50.1123L185.87 242.358L195.639 242.358L195.639 50.1123Z" fill="#BABABA" stroke="#263238" stroke-width="0.462161" stroke-miterlimit="10" stroke-linecap="round"/>
<path d="M204.936 50.1123L195.167 50.1123L195.167 242.358L204.936 242.358L204.936 50.1123Z" fill="#C9C9C9" stroke="#263238" stroke-width="0.462161" stroke-miterlimit="10" stroke-linecap="round"/>
<path d="M214.24 50.1123L204.471 50.1123L204.471 242.358L214.24 242.358L214.24 50.1123Z" fill="#BABABA" stroke="#263238" stroke-width="0.462161" stroke-miterlimit="10" stroke-linecap="round"/>
<path d="M223.537 50.1123L213.768 50.1123L213.768 242.358L223.537 242.358L223.537 50.1123Z" fill="#C9C9C9" stroke="#263238" stroke-width="0.462161" stroke-miterlimit="10" stroke-linecap="round"/>
<path d="M232.842 50.1123L223.073 50.1123L223.073 242.358L232.842 242.358L232.842 50.1123Z" fill="#BABABA" stroke="#263238" stroke-width="0.462161" stroke-miterlimit="10" stroke-linecap="round"/>
<path d="M242.145 50.1123L232.376 50.1123L232.376 242.358L242.145 242.358L242.145 50.1123Z" fill="#C9C9C9" stroke="#263238" stroke-width="0.462161" stroke-miterlimit="10" stroke-linecap="round"/>
<path d="M251.443 50.1123L241.674 50.1123L241.674 242.358L251.443 242.358L251.443 50.1123Z" fill="#BABABA" stroke="#263238" stroke-width="0.462161" stroke-miterlimit="10" stroke-linecap="round"/>
<path d="M260.748 50.1123L250.979 50.1123L250.979 242.358L260.748 242.358L260.748 50.1123Z" fill="#C9C9C9" stroke="#263238" stroke-width="0.462161" stroke-miterlimit="10" stroke-linecap="round"/>
<path d="M270.051 50.1123L260.282 50.1123L260.282 242.358L270.051 242.358L270.051 50.1123Z" fill="#BABABA" stroke="#263238" stroke-width="0.462161" stroke-miterlimit="10" stroke-linecap="round"/>
<path d="M279.349 50.1123L269.58 50.1123L269.58 242.358L279.349 242.358L279.349 50.1123Z" fill="#C9C9C9" stroke="#263238" stroke-width="0.462161" stroke-miterlimit="10" stroke-linecap="round"/>
<path d="M288.652 50.1123L278.884 50.1123L278.884 242.358L288.652 242.358L288.652 50.1123Z" fill="#BABABA" stroke="#263238" stroke-width="0.462161" stroke-miterlimit="10" stroke-linecap="round"/>
<path d="M297.952 50.1123L288.183 50.1123L288.183 242.358L297.952 242.358L297.952 50.1123Z" fill="#C9C9C9" stroke="#263238" stroke-width="0.462161" stroke-miterlimit="10" stroke-linecap="round"/>
<path d="M307.255 50.1123L297.486 50.1123L297.486 242.358L307.255 242.358L307.255 50.1123Z" fill="#BABABA" stroke="#263238" stroke-width="0.462161" stroke-miterlimit="10" stroke-linecap="round"/>
<path d="M316.558 50.1123L306.789 50.1123L306.789 242.358L316.558 242.358L316.558 50.1123Z" fill="#C9C9C9" stroke="#263238" stroke-width="0.462161" stroke-miterlimit="10" stroke-linecap="round"/>
<path d="M325.857 50.1123L316.088 50.1123L316.088 242.358L325.857 242.358L325.857 50.1123Z" fill="#BABABA" stroke="#263238" stroke-width="0.462161" stroke-miterlimit="10" stroke-linecap="round"/>
<path d="M335.161 50.1123L325.392 50.1123L325.392 242.358L335.161 242.358L335.161 50.1123Z" fill="#C9C9C9" stroke="#263238" stroke-width="0.462161" stroke-miterlimit="10" stroke-linecap="round"/>
<path d="M344.458 50.1123L334.689 50.1123L334.689 242.358L344.458 242.358L344.458 50.1123Z" fill="#BABABA" stroke="#263238" stroke-width="0.462161" stroke-miterlimit="10" stroke-linecap="round"/>
<path d="M353.763 50.1123L343.994 50.1123L343.994 242.358L353.763 242.358L353.763 50.1123Z" fill="#C9C9C9" stroke="#263238" stroke-width="0.462161" stroke-miterlimit="10" stroke-linecap="round"/>
<path d="M185.954 66.6345C185.954 66.6345 187.54 95.8516 186.133 116.118L185.954 66.6345Z" fill="#263238"/>
<path d="M204.461 72.8557C204.461 72.8557 207.823 102.986 204.287 119.419L204.461 72.8557Z" fill="#263238"/>
<path d="M195.526 133.028L195.526 184.389C195.526 184.389 199.281 160.771 195.526 133.028Z" fill="#263238"/>
<path d="M223.056 59.1357L223.056 106.327C223.056 106.327 226.805 76.5102 223.056 59.1357Z" fill="#263238"/>
<path d="M213.797 110.211L213.797 163.652C213.797 163.652 216.796 123.696 213.797 110.211Z" fill="#263238"/>
<path d="M232.314 62.3755L232.314 137.181C232.314 137.181 237.319 104.635 232.314 62.3755Z" fill="#263238"/>
<path d="M232.815 235.834L232.815 157.145C232.815 157.145 236.071 206.499 232.815 235.834Z" fill="#263238"/>
<path d="M269.603 192.795L269.603 114.1C269.603 114.1 272.86 163.461 269.603 192.795Z" fill="#263238"/>
<path d="M260.092 169.716L260.092 91.0264C260.092 91.0264 263.348 140.387 260.092 169.716Z" fill="#263238"/>
<path d="M279.115 141.978L279.115 63.2832C279.115 63.2832 282.371 112.649 279.115 141.978Z" fill="#263238"/>
<path d="M288.374 222.613L288.374 143.917C288.374 143.917 291.63 193.278 288.374 222.613Z" fill="#263238"/>
<path d="M297.884 186.311L297.884 107.605C297.884 107.605 301.14 156.976 297.884 186.311Z" fill="#263238"/>
<path d="M315.903 212.238L315.903 133.549C315.903 133.549 319.16 182.903 315.903 212.238Z" fill="#263238"/>
<path d="M306.896 133.947L306.896 55.2463C306.896 55.2463 310.147 104.601 306.896 133.947Z" fill="#263238"/>
<path d="M325.415 158.826L325.415 80.1418C325.415 80.1418 328.666 129.497 325.415 158.826Z" fill="#263238"/>
<path d="M343.932 224.944L343.932 146.277C343.932 146.277 347.188 195.598 343.932 224.944Z" fill="#263238"/>
<path d="M334.685 235.576L334.685 156.886C334.685 156.886 337.93 206.247 334.685 235.576Z" fill="#263238"/>
<path d="M334.685 128.751L334.685 50.0615C334.685 50.0615 337.93 99.4162 334.685 128.751Z" fill="#263238"/>
<path d="M344.213 152.604L344.213 73.9148C344.213 73.9148 347.436 123.298 344.213 152.604Z" fill="#263238"/>
<path d="M251.338 240.245L251.338 161.55C251.338 161.55 254.589 210.91 251.338 240.245Z" fill="#263238"/>
<path d="M185.763 209.385L185.763 130.696C185.763 130.696 189.019 180.05 185.763 209.385Z" fill="#263238"/>
<path d="M204.785 237.128L204.785 158.439C204.785 158.439 208.019 207.793 204.785 237.128Z" fill="#263238"/>
<path d="M251.085 57.3193L251.085 155.586C251.085 155.586 254.588 97.3815 251.085 57.3193Z" fill="#263238"/>
<path d="M166.763 49.7085L141.262 49.7085L141.262 242.84L166.763 242.84L166.763 49.7085Z" fill="white" stroke="#263238" stroke-width="0.462161" stroke-miterlimit="10" stroke-linecap="round"/>
<path d="M388.225 49.7085L362.724 49.7085L362.724 242.84L388.225 242.84L388.225 49.7085Z" fill="white" stroke="#263238" stroke-width="0.462161" stroke-miterlimit="10" stroke-linecap="round"/>
<path d="M392.491 21.9937L136.526 21.9937L136.526 51.8217L392.491 51.8217L392.491 21.9937Z" fill="#263238" stroke="#263238" stroke-width="0.462161" stroke-miterlimit="10" stroke-linecap="round"/>
<path d="M265.163 70.3449C293.352 70.3449 316.204 56.0219 316.204 38.3535C316.204 20.6851 293.352 6.36206 265.163 6.36206C236.973 6.36206 214.121 20.6851 214.121 38.3535C214.121 56.0219 236.973 70.3449 265.163 70.3449Z" fill="#263238" stroke="#263238" stroke-width="0.462161" stroke-miterlimit="10" stroke-linecap="round"/>
<path d="M265.164 67.363C290.728 67.363 311.453 54.3749 311.453 38.3533C311.453 22.3316 290.728 9.34351 265.164 9.34351C239.599 9.34351 218.875 22.3316 218.875 38.3533C218.875 54.3749 239.599 67.363 265.164 67.363Z" fill="#159AD5" stroke="#263238" stroke-width="0.462161" stroke-miterlimit="10" stroke-linecap="round"/>
<path d="M265.164 64.6618C288.345 64.6618 307.137 52.8831 307.137 38.3535C307.137 23.8238 288.345 12.0452 265.164 12.0452C241.982 12.0452 223.19 23.8238 223.19 38.3535C223.19 52.8831 241.982 64.6618 265.164 64.6618Z" fill="white" stroke="#263238" stroke-width="0.462161" stroke-miterlimit="10" stroke-linecap="round"/>
<path d="M245.979 35.1868C243.849 35.1868 242.168 34.7833 240.935 33.9818C239.705 33.1932 238.783 32.006 238.323 30.619C237.801 29.0109 237.549 27.3271 237.578 25.6365L237.578 15.3127C237.542 13.5738 237.793 11.841 238.323 10.1844C238.778 8.80684 239.703 7.63269 240.935 6.86644C242.179 6.0874 243.86 5.69507 245.979 5.69507C248.098 5.69507 249.656 6.03695 250.827 6.72633C251.968 7.37707 252.846 8.4059 253.31 9.63515C253.819 11.0334 254.066 12.5135 254.038 14.0012L254.038 16.4112L248.372 16.4112L248.372 13.7153C248.373 13.0936 248.337 12.4723 248.266 11.8546C248.217 11.3317 248.012 10.8356 247.677 10.431C247.459 10.2253 247.198 10.0689 246.914 9.9722C246.63 9.87552 246.328 9.84086 246.029 9.87054C245.726 9.84479 245.42 9.8812 245.131 9.97757C244.842 10.0739 244.575 10.2282 244.348 10.431C243.977 10.8417 243.74 11.356 243.67 11.905C243.571 12.5692 243.524 13.2401 243.53 13.9115L243.53 26.9704C243.521 27.6796 243.587 28.3878 243.726 29.0833C243.804 29.6178 244.059 30.1109 244.449 30.4845C244.899 30.8332 245.461 31.0047 246.029 30.9665C246.323 30.9957 246.619 30.9607 246.898 30.8639C247.177 30.7672 247.431 30.6109 247.644 30.406C247.984 29.9864 248.192 29.4755 248.243 28.9376C248.33 28.2893 248.374 27.6358 248.372 26.9816L248.372 24.1793L254.05 24.1793L254.05 26.5612C254.075 28.0767 253.834 29.5848 253.338 31.0169C252.887 32.2809 252.024 33.3567 250.889 34.0715C249.719 34.815 248.083 35.1868 245.979 35.1868Z" fill="#263238" stroke="#263238" stroke-width="0.462161" stroke-miterlimit="10" stroke-linecap="round"/>
<path d="M256.219 34.7944L261.79 6.0481L268.269 6.0481L273.806 34.7944L268.375 34.7944L267.344 28.478L262.804 28.478L261.683 34.7944L256.219 34.7944ZM263.336 24.8966L266.778 24.8966L265.04 13.2893L263.336 24.8966Z" fill="#263238" stroke="#263238" stroke-width="0.462161" stroke-miterlimit="10" stroke-linecap="round"/>
<path d="M276.502 34.7948L276.502 6.04848L283.956 6.04848C285.641 6.01876 287.322 6.24554 288.939 6.72104C290.241 7.10285 291.37 7.92499 292.133 9.04698C292.881 10.1679 293.254 11.7055 293.254 13.6596C293.267 14.7155 293.166 15.7698 292.952 16.8038C292.773 17.6638 292.41 18.4747 291.887 19.1802C291.323 19.895 290.583 20.4512 289.74 20.7944L293.714 34.806L287.717 34.806L284.416 21.7808L282.359 21.7808L282.359 34.7948L276.502 34.7948ZM282.359 18.2947L284.04 18.2947C284.814 18.3349 285.586 18.1767 286.282 17.8351C286.826 17.5247 287.236 17.0234 287.431 16.4283C287.679 15.6806 287.795 14.8954 287.773 14.108C287.839 13.0454 287.585 11.9873 287.044 11.0703C286.557 10.3753 285.654 10.0222 284.326 10.0222L282.342 10.0222L282.359 18.2947Z" fill="#263238" stroke="#263238" stroke-width="0.462161" stroke-miterlimit="10" stroke-linecap="round"/>
<path d="M229.226 66.1584L225.499 37.4121L230.47 37.4121L232.46 54.9771L234.977 37.4457L238.9 37.4457L241.545 54.921L243.529 37.3896L248.428 37.3896L244.74 66.136L239.768 66.136L236.966 47.932L234.304 66.136L229.226 66.1584Z" fill="#263238" stroke="#263238" stroke-width="0.462161" stroke-miterlimit="10" stroke-linecap="round"/>
<path d="M249.386 66.1584L254.957 37.4121L261.453 37.4121L266.99 66.1584L261.559 66.1584L260.528 59.842L255.988 59.842L254.867 66.1584L249.386 66.1584ZM256.521 56.255L259.962 56.255L258.225 44.6533L256.521 56.255Z" fill="#263238" stroke="#263238" stroke-width="0.462161" stroke-miterlimit="10" stroke-linecap="round"/>
<path d="M277.14 66.5507C275.602 66.6053 274.075 66.2698 272.701 65.5755C271.509 64.9127 270.568 63.877 270.022 62.6275C269.356 61.0279 269.002 59.3158 268.979 57.5833L274.024 56.7314C274.045 57.7297 274.169 58.7233 274.394 59.6962C274.528 60.3624 274.848 60.9766 275.318 61.4673C275.524 61.662 275.766 61.8141 276.03 61.9151C276.295 62.0161 276.577 62.0639 276.86 62.0558C277.158 62.0912 277.46 62.0434 277.733 61.9178C278.006 61.7922 278.239 61.5936 278.407 61.344C278.684 60.846 278.826 60.2833 278.816 59.7131C278.854 58.6351 278.547 57.5731 277.941 56.6809C277.279 55.77 276.511 54.9404 275.655 54.2093L272.673 51.6199C271.639 50.7575 270.758 49.7267 270.067 48.571C269.354 47.2918 269.003 45.8424 269.052 44.3787C269.052 42.0135 269.745 40.1976 271.132 38.931C272.518 37.6643 274.416 37.0328 276.826 37.0366C278.048 36.9904 279.263 37.2323 280.374 37.7428C281.246 38.1738 281.987 38.8297 282.52 39.6427C283.029 40.4344 283.39 41.3117 283.585 42.2321C283.784 43.1548 283.91 44.0919 283.961 45.0344L278.956 45.7799C278.918 45.0087 278.841 44.2399 278.726 43.4763C278.654 42.9079 278.429 42.3695 278.076 41.9182C277.893 41.723 277.669 41.5713 277.419 41.4743C277.17 41.3773 276.902 41.3375 276.635 41.3578C276.336 41.3375 276.038 41.3974 275.77 41.5314C275.501 41.6654 275.274 41.8686 275.111 42.12C274.783 42.6192 274.61 43.2041 274.612 43.8014C274.574 44.6871 274.817 45.5622 275.307 46.3011C275.859 47.0529 276.496 47.7375 277.207 48.3412L280.116 50.8969C281.317 51.9322 282.362 53.1346 283.221 54.4671C284.126 55.9514 284.577 57.6674 284.521 59.4048C284.539 60.6829 284.22 61.9432 283.596 63.059C282.996 64.1358 282.105 65.0216 281.024 65.6148C279.832 66.2584 278.494 66.5809 277.14 66.5507Z" fill="#263238" stroke="#263238" stroke-width="0.462161" stroke-miterlimit="10" stroke-linecap="round"/>
<path d="M287.219 66.1584L287.219 37.4121L293.076 37.4121L293.076 49.2323L298.153 49.2323L298.153 37.4121L304.01 37.4121L304.01 66.1584L298.153 66.1584L298.153 53.419L293.076 53.419L293.076 66.1584L287.219 66.1584Z" fill="#263238" stroke="#263238" stroke-width="0.462161" stroke-miterlimit="10" stroke-linecap="round"/>
<path d="M247.587 33.982C245.457 33.982 243.77 33.584 242.543 32.7769C241.313 31.989 240.393 30.8014 239.936 29.4141C239.411 27.8047 239.159 26.1187 239.191 24.426L239.191 14.1078C239.146 12.3642 239.392 10.6253 239.92 8.96273C240.374 7.58648 241.296 6.4127 242.526 5.64476C243.77 4.86385 245.451 4.47339 247.57 4.47339C249.627 4.47339 251.241 4.82088 252.412 5.50465C253.555 6.15317 254.434 7.18275 254.895 8.41347C255.406 9.81117 255.653 11.2916 255.624 12.7795L255.624 15.1951L249.963 15.1951L249.963 12.5105C249.964 11.8887 249.928 11.2674 249.857 10.6497C249.816 10.1315 249.621 9.63745 249.296 9.23175C249.078 9.02514 248.818 8.86809 248.534 8.77135C248.249 8.67462 247.947 8.64048 247.648 8.67128C247.345 8.64553 247.039 8.68194 246.75 8.77831C246.461 8.87467 246.194 9.02896 245.967 9.23175C245.595 9.64149 245.36 10.1566 245.294 10.7058C245.194 11.3679 245.145 12.0369 245.149 12.7066L245.149 25.7767C245.14 26.4841 245.206 27.1904 245.345 27.8841C245.435 28.4146 245.697 28.9009 246.09 29.2684C246.54 29.6171 247.103 29.7886 247.671 29.7504C247.964 29.7781 248.26 29.7424 248.539 29.6457C248.817 29.549 249.072 29.3936 249.285 29.19C249.627 28.7687 249.838 28.2561 249.89 27.7159C249.973 27.0691 250.014 26.4176 250.014 25.7655L250.014 22.9744L255.657 22.9744L255.657 25.3564C255.685 26.8702 255.444 28.3768 254.946 29.8065C254.495 31.0704 253.632 32.1462 252.496 32.861C251.327 33.612 249.69 33.9857 247.587 33.982Z" fill="#159AD5" stroke="#263238" stroke-width="0.462161" stroke-miterlimit="10" stroke-linecap="round"/>
<path d="M257.804 33.6233L263.375 4.87695L269.871 4.87695L275.408 33.6233L269.978 33.6233L268.952 27.3068L264.406 27.3068L263.286 33.6233L257.804 33.6233ZM264.939 23.7198L268.38 23.7198L266.643 12.1126L264.939 23.7198Z" fill="#159AD5" stroke="#263238" stroke-width="0.462161" stroke-miterlimit="10" stroke-linecap="round"/>
<path d="M278.105 33.6231L278.105 4.84875L285.559 4.84875C287.245 4.81404 288.927 5.03513 290.547 5.5045C291.863 5.88033 293.004 6.70786 293.77 7.84164C294.515 8.96257 294.891 10.4926 294.891 12.4599C294.904 13.514 294.802 14.5663 294.588 15.5985C294.411 16.4588 294.048 17.2699 293.523 17.9749C292.963 18.6929 292.222 19.2498 291.377 19.589L295.351 33.6007L289.354 33.6007L286.052 20.5754L283.962 20.5754L283.962 33.6231L278.105 33.6231ZM283.962 17.0893L285.643 17.0893C286.417 17.1296 287.189 16.9714 287.885 16.6298C288.43 16.3218 288.842 15.8225 289.04 15.2286C289.283 14.4779 289.396 13.6914 289.376 12.9027C289.445 11.8416 289.191 10.7846 288.647 9.87053C288.162 9.17181 287.257 8.82246 285.935 8.82246L283.962 8.82246L283.962 17.0893Z" fill="#159AD5" stroke="#263238" stroke-width="0.462161" stroke-miterlimit="10" stroke-linecap="round"/>
<path d="M230.835 64.9534L227.108 36.207L232.073 36.207L234.063 53.8001L236.602 36.2463L240.525 36.2463L243.154 53.7384L245.143 36.207L250.053 36.207L246.365 64.9534L241.394 64.9534L238.592 46.7494L235.929 64.9534L230.835 64.9534Z" fill="#159AD5" stroke="#263238" stroke-width="0.462161" stroke-miterlimit="10" stroke-linecap="round"/>
<path d="M250.989 64.9534L256.566 36.207L263.056 36.207L268.593 64.9534L263.162 64.9534L262.137 58.6369L257.591 58.6369L256.47 64.9534L250.989 64.9534ZM258.124 55.0555L261.565 55.0555L259.828 43.4483L258.124 55.0555Z" fill="#159AD5" stroke="#263238" stroke-width="0.462161" stroke-miterlimit="10" stroke-linecap="round"/>
<path d="M278.743 65.3459C277.206 65.3997 275.681 65.0643 274.309 64.3707C273.115 63.7115 272.173 62.6747 271.63 61.4227C270.962 59.8236 270.606 58.1113 270.582 56.3785L275.626 55.5265C275.65 56.5247 275.774 57.518 275.996 58.4914C276.132 59.1587 276.452 59.7744 276.921 60.2681C277.344 60.6492 277.899 60.8503 278.468 60.8286C278.766 60.8641 279.067 60.8164 279.339 60.6908C279.612 60.5651 279.843 60.3664 280.009 60.1168C280.287 59.6187 280.428 59.056 280.418 58.4858C280.456 57.4088 280.152 56.3475 279.55 55.4537C278.883 54.5459 278.114 53.7183 277.257 52.9876L274.27 50.4375C273.235 49.5763 272.354 48.5453 271.664 47.3886C270.954 46.1102 270.604 44.6634 270.65 43.2019C270.65 40.8367 271.343 39.0208 272.729 37.7541C274.115 36.4875 276.013 35.8579 278.423 35.8654C279.653 35.8106 280.879 36.0488 281.999 36.5604C282.872 36.9912 283.615 37.647 284.151 38.4603C284.658 39.2543 285.017 40.1335 285.21 41.0553C285.413 41.9774 285.539 42.9147 285.586 43.8576L280.581 44.603C280.546 43.8298 280.469 43.0589 280.351 42.2939C280.283 41.7246 280.062 41.1843 279.712 40.7302C279.531 40.5351 279.307 40.3834 279.059 40.2864C278.81 40.1894 278.543 40.1495 278.277 40.1698C277.975 40.1409 277.671 40.1944 277.396 40.3247C277.122 40.4549 276.888 40.657 276.719 40.9096C276.393 41.4093 276.222 41.9942 276.226 42.591C276.188 43.4759 276.429 44.3503 276.916 45.0907C277.467 45.8443 278.105 46.5309 278.816 47.1364L281.724 49.6865C282.925 50.7218 283.971 51.9241 284.829 53.2567C285.734 54.7448 286.184 56.465 286.124 58.2056C286.141 59.483 285.825 60.7427 285.205 61.8598C284.605 62.9366 283.713 63.8224 282.632 64.4155C281.438 65.0564 280.098 65.377 278.743 65.3459Z" fill="#159AD5" stroke="#263238" stroke-width="0.462161" stroke-miterlimit="10" stroke-linecap="round"/>
<path d="M288.826 64.9534L288.826 36.207L294.677 36.207L294.677 48.0273L299.755 48.0273L299.755 36.207L305.612 36.207L305.612 64.9534L299.755 64.9534L299.755 52.214L294.677 52.214L294.677 64.9534L288.826 64.9534Z" fill="#159AD5" stroke="#263238" stroke-width="0.462161" stroke-miterlimit="10" stroke-linecap="round"/>
<path d="M15.867 189.275C16.8646 189.712 19.3026 189.656 19.3026 189.656C19.3026 189.656 18.7758 188.064 18.7422 187.975C18.1817 186.854 16.5003 185.01 15.144 185.172C14.9167 185.21 14.6998 185.294 14.5073 185.421C14.3149 185.548 14.1513 185.713 14.027 185.907C13.9028 186.101 13.8208 186.319 13.7863 186.547C13.7518 186.775 13.7657 187.007 13.8269 187.229C14.0455 188.199 15.0207 188.905 15.867 189.275Z" fill="#263238"/>
<path d="M16.7086 196.332C17.7455 196.483 19.9145 195.855 20.0714 195.799C20.427 197.043 20.8651 198.262 21.3829 199.448C21.6856 200.143 22.005 200.832 22.3413 201.516C22.1396 201.225 21.9602 200.956 21.9322 200.956C21.1195 200.02 19.0065 198.714 17.7287 199.229C17.5192 199.325 17.3322 199.464 17.1799 199.637C17.0276 199.81 16.9134 200.013 16.8447 200.233C16.776 200.453 16.7543 200.685 16.7811 200.913C16.8078 201.142 16.8825 201.363 17.0001 201.561C17.4709 202.418 18.603 202.844 19.5166 202.973C20.4301 203.102 22.3189 202.609 22.8009 202.475L23.1876 203.259C23.821 204.509 24.4543 205.759 25.0372 207.003C25.2445 207.44 25.4295 207.877 25.5976 208.32C25.4183 208.057 25.267 207.844 25.2445 207.816C24.4319 206.874 22.3133 205.54 21.0354 206.084C20.826 206.18 20.639 206.319 20.4867 206.492C20.3344 206.664 20.2202 206.867 20.1515 207.087C20.0827 207.307 20.0611 207.539 20.0878 207.768C20.1146 207.997 20.1892 208.217 20.3068 208.415C20.7832 209.279 21.9098 209.699 22.8289 209.833C23.7481 209.968 25.4351 209.52 26.0236 209.357C26.2029 209.811 26.3823 210.265 26.5336 210.713C26.6345 211.022 26.7522 211.313 26.8307 211.627C26.9091 211.941 27.0044 212.249 27.0885 212.552C27.2286 213.146 27.3799 213.757 27.5032 214.34C27.5929 214.743 27.6714 215.13 27.7498 215.517C27.5537 215.079 27.1445 214.228 27.0997 214.16C26.4383 213.112 24.5496 211.476 23.1764 211.818C22.9549 211.88 22.7492 211.989 22.5725 212.136C22.3959 212.284 22.2524 212.467 22.1514 212.674C22.0503 212.881 21.9941 213.107 21.9863 213.337C21.9784 213.567 22.0192 213.796 22.1059 214.009C22.4422 214.934 23.4903 215.522 24.3478 215.791C25.323 216.088 27.4808 215.819 27.7498 215.791C27.8787 216.43 28.002 217.063 28.1029 217.658C28.3327 218.969 28.5065 220.146 28.6634 221.138L29.5713 221.138C29.4144 220.107 29.207 218.896 28.9324 217.506C28.8035 216.85 28.6522 216.15 28.4952 215.438C29.143 215.177 29.7755 214.88 30.3896 214.547C31.2263 215.265 32.1579 215.865 33.1583 216.329C32.9061 216.94 32.6595 217.529 32.4185 218.084C31.9141 219.238 31.4377 220.264 31.0173 221.138L31.9982 221.138C32.3625 220.337 32.7604 219.417 33.1751 218.403C33.433 217.781 33.6908 217.12 33.9486 216.436C34.212 216.486 36.3474 216.923 37.3114 216.699C38.2754 216.475 39.3122 215.982 39.7158 215.091C39.8171 214.884 39.8739 214.658 39.8825 214.428C39.8911 214.197 39.8513 213.968 39.7658 213.754C39.6802 213.54 39.5508 213.347 39.3858 213.186C39.2208 213.025 39.0239 212.901 38.8078 212.821C37.4907 212.378 35.4843 213.874 34.75 214.872C34.7052 214.928 34.3073 215.617 34.0607 216.06L34.3745 215.22C34.5875 214.659 34.7781 214.099 34.9854 213.448C35.0751 213.146 35.1704 212.838 35.2601 212.529C35.3498 212.221 35.4226 211.89 35.5067 211.571C35.686 210.82 35.8318 210.046 35.9607 209.267C36.4651 209.452 38.253 210.074 39.1777 210.007C40.1025 209.94 41.2627 209.604 41.7951 208.785C41.9264 208.596 42.0165 208.381 42.0595 208.154C42.1024 207.927 42.0973 207.694 42.0445 207.47C41.9917 207.245 41.8923 207.034 41.7528 206.851C41.6133 206.667 41.4368 206.515 41.2346 206.403C40.0016 205.77 37.7878 206.964 36.9078 207.816C36.8574 207.866 36.2969 208.567 35.9943 208.937C36.0671 208.472 36.1456 208.001 36.2017 207.524C36.3754 206.151 36.5043 204.756 36.6388 203.36L36.7733 202.082C36.9527 202.149 39.0656 202.934 40.1025 202.861C41.0273 202.8 42.1818 202.458 42.7199 201.634C42.852 201.445 42.9427 201.23 42.9861 201.004C43.0295 200.778 43.0246 200.545 42.9717 200.32C42.9187 200.096 42.819 199.885 42.6791 199.702C42.5391 199.519 42.362 199.367 42.1594 199.257C40.9264 198.619 38.7182 199.79 37.8382 200.664C37.771 200.731 36.9695 201.74 36.7789 202.004C36.8742 201.068 36.9807 200.132 37.1264 199.201C37.3138 197.963 37.5815 196.739 37.9279 195.536C38.0064 195.57 40.209 196.399 41.2907 196.326C42.2099 196.259 43.37 195.917 43.9025 195.099C44.0356 194.91 44.1271 194.695 44.171 194.468C44.2149 194.241 44.2102 194.007 44.1573 193.782C44.1043 193.557 44.0043 193.346 43.8638 193.162C43.7232 192.978 43.5454 192.827 43.342 192.717C42.109 192.083 39.9007 193.277 39.0208 194.129C38.9536 194.196 38.0848 195.278 37.9447 195.486C37.9447 195.418 37.9783 195.345 38.0008 195.273C38.3791 194.077 38.865 192.917 39.4524 191.809C39.7662 191.187 40.1025 190.615 40.4444 190.066C40.8367 190.262 42.647 191.142 43.611 191.187C44.575 191.232 45.724 191.013 46.3461 190.256C46.4984 190.083 46.6126 189.88 46.6812 189.66C46.7498 189.44 46.7713 189.208 46.7444 188.979C46.7174 188.75 46.6426 188.53 46.5247 188.332C46.4068 188.133 46.2486 187.962 46.0603 187.83C44.9001 187.062 42.5742 187.986 41.6102 188.754C41.5541 188.799 41.0497 189.287 40.719 189.645C40.8759 189.399 41.0329 189.141 41.1842 188.911C41.7447 188.037 42.35 187.269 42.8656 186.597C43.1683 186.215 43.4261 185.879 43.7119 185.565C44.1995 185.565 46.1611 185.498 47.0187 185.094C47.8762 184.691 48.8122 183.974 49.0195 183.01C49.0742 182.786 49.0814 182.553 49.0406 182.326C48.9997 182.099 48.9117 181.884 48.7823 181.693C48.6529 181.502 48.485 181.341 48.2893 181.219C48.0936 181.097 47.8746 181.018 47.6464 180.986C46.262 180.841 44.6255 182.729 44.121 183.861C44.0762 183.962 43.5606 185.543 43.5998 185.543C43.3364 185.84 43.0394 186.165 42.7647 186.518C42.2043 187.179 41.6438 187.936 41.0217 188.799C40.3632 189.726 39.7588 190.689 39.2114 191.686C38.5948 192.796 38.0771 193.959 37.6645 195.16C37.6677 195.175 37.6677 195.19 37.6645 195.205C37.6645 194.802 37.6645 193.664 37.6645 193.574C37.5075 192.347 36.4763 190.066 35.1144 189.814C34.8864 189.778 34.6534 189.791 34.4307 189.851C34.208 189.911 34.0005 190.018 33.8218 190.164C33.643 190.31 33.497 190.492 33.3934 190.698C33.2897 190.904 33.2306 191.13 33.22 191.36C33.1359 192.336 33.8477 193.311 34.5371 193.927C35.3161 194.622 37.4739 195.295 37.6477 195.351C37.2591 196.585 36.9539 197.843 36.7341 199.117C36.5996 199.863 36.4931 200.614 36.3922 201.359C36.3922 201.006 36.3922 200.692 36.3922 200.647C36.2353 199.42 35.204 197.139 33.8421 196.887C33.6181 196.863 33.3916 196.885 33.1768 196.953C32.9619 197.02 32.7633 197.131 32.5934 197.279C32.4234 197.427 32.2858 197.608 32.1892 197.812C32.0926 198.015 32.039 198.236 32.0318 198.462C31.9533 199.442 32.6595 200.418 33.3489 201.034C34.0383 201.651 35.8822 202.273 36.3698 202.424C36.3306 202.716 36.2913 202.985 36.2577 203.293C36.0896 204.688 35.9326 206.095 35.7309 207.435C35.6636 207.917 35.5739 208.387 35.4899 208.853C35.4899 208.544 35.4899 208.292 35.4899 208.242C35.3329 207.009 34.3017 204.728 32.9397 204.475C32.7118 204.44 32.4788 204.452 32.2561 204.513C32.0334 204.573 31.8259 204.68 31.6471 204.826C31.4684 204.972 31.3224 205.154 31.2187 205.36C31.1151 205.566 31.056 205.792 31.0454 206.022C30.9669 206.998 31.6731 207.973 32.3625 208.589C33.0518 209.206 34.7164 209.766 35.2937 209.957C35.1928 210.433 35.0919 210.915 34.9686 211.369C34.8846 211.683 34.8173 211.991 34.7108 212.3C34.6043 212.608 34.5147 212.91 34.4194 213.207C34.2064 213.768 33.999 214.373 33.7804 214.928C33.6347 215.315 33.4834 215.679 33.3377 216.049C33.4105 215.573 33.5394 214.637 33.5394 214.558C33.5228 213.469 33.2276 212.402 32.6819 211.459C32.696 211.338 32.696 211.216 32.6819 211.095C32.6535 210.866 32.5771 210.646 32.4579 210.448C32.3387 210.251 32.1793 210.081 31.99 209.949C31.8007 209.818 31.5859 209.727 31.3594 209.684C31.1329 209.641 30.8999 209.646 30.6755 209.699C29.3359 210.058 28.484 212.412 28.4336 213.622C28.4336 213.695 28.4784 214.491 28.5177 214.99C28.4448 214.698 28.3832 214.429 28.3103 214.115C28.1702 213.555 28.0132 212.938 27.8451 212.305C27.7554 212.002 27.6601 211.694 27.5705 211.386C27.4808 211.078 27.3519 210.764 27.2454 210.45C26.982 209.721 26.6849 209.004 26.3543 208.281C26.8699 208.158 28.7082 207.687 29.448 207.121C30.1879 206.555 30.9109 205.686 30.9109 204.688C30.918 204.458 30.8763 204.229 30.7886 204.015C30.7009 203.802 30.5691 203.61 30.4019 203.451C30.2346 203.292 30.0358 203.171 29.8183 203.094C29.6008 203.018 29.3696 202.988 29.1398 203.007C27.761 203.153 26.5616 205.35 26.3374 206.566C26.3374 206.639 26.2366 207.53 26.2029 208.023C26.0068 207.592 25.8106 207.16 25.5976 206.728C24.9811 205.49 24.3198 204.251 23.664 203.013L23.0699 201.892C23.2549 201.847 25.4463 201.331 26.2758 200.703C27.01 200.143 27.7891 199.218 27.7778 198.243C27.785 198.013 27.7433 197.783 27.6556 197.57C27.5678 197.357 27.4361 197.164 27.2688 197.006C27.1016 196.847 26.9028 196.725 26.6853 196.649C26.4678 196.572 26.2366 196.543 26.0068 196.562C24.628 196.707 23.4286 198.904 23.2044 200.121C23.2044 200.21 23.0699 201.494 23.0531 201.802C22.6216 200.967 22.1956 200.121 21.8089 199.285C21.2832 198.15 20.8302 196.981 20.4525 195.788C20.5422 195.788 22.8345 195.228 23.6808 194.6C24.415 194.04 25.1941 193.115 25.1885 192.134C25.1939 191.903 25.1509 191.674 25.0622 191.462C24.9736 191.249 24.8412 191.057 24.6738 190.898C24.5063 190.74 24.3075 190.618 24.0901 190.542C23.8727 190.465 23.6417 190.434 23.4118 190.453C22.0331 190.604 20.8337 192.801 20.6095 194.017C20.6095 194.112 20.4638 195.491 20.4582 195.743C20.4582 195.67 20.4077 195.603 20.3909 195.536C20.0486 194.328 19.8123 193.092 19.6847 191.842C19.6118 191.153 19.5726 190.486 19.5558 189.842C19.993 189.791 21.9882 189.522 22.8121 189.023C23.636 188.525 24.4935 187.712 24.5776 186.742C24.61 186.514 24.5939 186.281 24.5302 186.06C24.4666 185.838 24.3568 185.633 24.2081 185.456C24.0594 185.28 23.8751 185.137 23.6674 185.037C23.4597 184.937 23.2331 184.882 23.0027 184.876C21.6127 184.876 20.2003 186.922 19.8024 188.104C19.8024 188.166 19.6399 188.844 19.5446 189.337C19.5446 189.046 19.5446 188.743 19.5446 188.463C19.5446 187.415 19.6118 186.451 19.6791 185.604C19.7183 185.117 19.7632 184.685 19.8136 184.276C20.2172 184.002 21.8201 182.864 22.3133 182.034C22.8065 181.205 23.1876 180.106 22.8289 179.193C22.7515 178.978 22.6301 178.781 22.4724 178.616C22.3148 178.451 22.1244 178.32 21.9134 178.233C21.7024 178.145 21.4755 178.102 21.2471 178.108C21.0187 178.113 20.7939 178.165 20.5871 178.262C19.354 178.901 19.029 181.384 19.2363 182.606C19.2363 182.712 19.7183 184.332 19.7408 184.315C19.6847 184.708 19.6343 185.128 19.5838 185.588C19.4998 186.44 19.4101 187.398 19.3877 188.452C19.3482 189.586 19.3744 190.722 19.4661 191.854C19.5624 193.122 19.7744 194.379 20.0995 195.609C20.0963 195.624 20.0963 195.639 20.0995 195.654C19.8809 195.312 19.2419 194.376 19.1803 194.309C18.3732 193.367 16.2547 192.033 14.9768 192.577C14.7673 192.673 14.5803 192.811 14.428 192.984C14.2758 193.157 14.1615 193.36 14.0928 193.58C14.0241 193.8 14.0024 194.032 14.0292 194.261C14.056 194.49 14.1306 194.71 14.2482 194.908C14.6573 195.777 15.7783 196.197 16.7086 196.332Z" fill="#263238"/>
<path d="M40.5065 189.813C40.5065 189.813 40.9493 188.193 40.9605 188.087C41.1342 186.86 40.7419 184.388 39.4921 183.788C39.2816 183.692 39.0533 183.642 38.8221 183.641C38.5909 183.639 38.362 183.687 38.1504 183.78C37.9388 183.873 37.7492 184.01 37.594 184.181C37.4389 184.352 37.3217 184.555 37.2502 184.775C36.9195 185.694 37.3399 186.826 37.8443 187.605C38.4384 188.513 40.5009 189.813 40.5065 189.813Z" fill="#263238"/>
<path d="M37.799 219.378L22.8513 219.378L24.3422 243.287L36.3081 243.287L37.799 219.378Z" fill="#263238"/>
<path d="M87.7643 227.853C87.7643 227.853 83.9139 230.656 84.777 231.9C85.6401 233.144 90.8356 236.227 92.4442 238.065C94.0527 239.903 97.4884 241.77 100.851 242.386C104.214 243.003 108.266 243.507 108.02 241.153C107.773 238.799 103.693 238.065 102.583 236.703C101.473 235.341 99.8255 231.76 99.8255 231.76L89.6026 225.701L87.7643 227.853Z" fill="white" stroke="#263238" stroke-width="0.462161" stroke-miterlimit="10" stroke-linecap="round"/>
<path d="M130.528 159.728C130.528 159.728 128.46 193.205 127.558 197.728C126.655 202.251 99.8484 231.776 99.8484 231.776C99.8484 231.776 94.423 232.073 92.6127 231.171C90.9211 230.191 89.3077 229.081 87.7871 227.853C87.7871 227.853 91.7104 222.427 92.9154 221.525C94.1204 220.623 97.1357 219.115 98.038 218.51C98.9404 217.904 104.971 205.849 104.971 205.849L108.16 161.746L130.528 159.728Z" fill="#263238" stroke="#263238" stroke-width="0.462161" stroke-miterlimit="10" stroke-linecap="round"/>
<path d="M120.523 232.449L123.241 237.022C123.611 237.639 130.78 241.097 130.78 241.842C130.78 242.588 129.793 243.698 129.177 243.944C128.56 244.191 119.649 244.314 116.936 243.944C114.224 243.574 112.24 242.582 110.261 242.089C108.283 241.596 106.898 242.212 106.797 239.987C106.697 237.762 107.739 233.43 107.739 233.43C107.739 233.43 108.776 233.559 112.223 232.449C115.67 231.339 120.523 232.449 120.523 232.449Z" fill="white" stroke="#263238" stroke-width="0.462161" stroke-miterlimit="10" stroke-linecap="round"/>
<path d="M100.856 162.127C100.856 162.127 103.815 198.16 105.34 200.878C106.864 203.596 108.658 228.901 108.658 228.901C108.658 228.901 105.788 231.704 107.296 233.2C108.804 234.697 107.414 235.123 107.414 235.123C107.414 235.123 111.976 234.03 113.484 233.441C114.991 232.853 120.994 232.993 120.994 232.993C120.994 232.993 122.826 229.524 123.129 227.114C123.432 224.704 121.621 216.863 121.621 215.96C121.621 215.058 122.826 173.443 122.826 173.443L130.202 164.476L100.856 162.127Z" fill="#263238" stroke="#263238" stroke-width="0.462161" stroke-miterlimit="10" stroke-linecap="round"/>
<path d="M117.671 96.502L117.312 99.719C113.965 100.407 110.55 100.706 107.134 100.61C101.591 100.431 100.863 102.852 100.863 102.852C100.863 102.852 84.7827 125.736 85.5001 127.513C86.2175 129.289 92.1136 130.999 92.1136 130.999L101.95 122.418L100.874 162.116C100.874 162.116 103.917 165.871 112.856 166.23C121.796 166.588 129.11 165.159 130.203 164.442C131.296 163.724 133.067 129.749 133.067 129.749L139.378 129.682C139.378 129.682 138.257 114.37 137.534 110.256C136.811 106.142 134.317 104.18 130.203 102.746C126.089 101.311 124.66 99.7078 124.66 99.7078L121.263 95.2241C119.95 95.1935 118.67 95.6485 117.671 96.502Z" fill="white" stroke="#263238" stroke-width="0.462161" stroke-miterlimit="10" stroke-linecap="round"/>
<path d="M112.84 166.241C121.807 166.599 129.093 165.17 130.186 164.453C131.279 163.735 133.05 129.76 133.05 129.76L141.098 130.186C141.098 130.186 138.234 114.381 137.517 110.267C136.8 106.153 134.3 104.191 130.186 102.757C126.072 101.322 124.643 99.7188 124.643 99.7188L121.247 95.2351C119.941 95.2024 118.669 95.649 117.671 96.4905L117.312 99.7076C113.966 100.399 110.55 100.702 107.134 100.61C101.591 100.431 100.863 102.852 100.863 102.852C100.863 102.852 92.775 110.855 89.1992 117.626L98.4301 125.506L101.955 122.429L100.879 162.127C100.879 162.127 103.9 165.893 112.84 166.241Z" fill="#A3A3A3" stroke="#263238" stroke-width="0.462161" stroke-miterlimit="10" stroke-linecap="round"/>
<path d="M134.816 153.34C139.429 148.733 140.135 141.519 140.135 141.519L139.35 130.153L133.051 129.761L132.647 139.984C131.799 141.984 131.405 144.146 131.493 146.317C131.604 147.817 131.51 149.326 131.212 150.801L131.167 150.801C131.167 150.801 129.436 154.22 129.273 154.814C129.111 155.408 132.305 156.764 133.196 156.983C134.087 157.201 135.315 157.201 135.365 156.422C135.416 155.643 136.256 155.481 135.528 154.741C135.321 154.567 135.151 154.354 135.029 154.113C134.907 153.872 134.834 153.609 134.816 153.34Z" fill="white" stroke="#263238" stroke-width="0.462161" stroke-miterlimit="10" stroke-linecap="round"/>
<path d="M133.397 139.485C133.397 139.485 136.682 138.061 138.901 139.927" stroke="#263238" stroke-width="0.462161" stroke-miterlimit="10" stroke-linecap="round"/>
<path d="M134.816 153.339C134.549 153.094 134.222 152.923 133.868 152.843C133.514 152.764 133.145 152.778 132.798 152.885" stroke="#263238" stroke-width="0.462161" stroke-miterlimit="10" stroke-linecap="round"/>
<path d="M131.133 149.713C132.613 148.872 135.152 149.293 136.222 150.346C136.956 151.151 137.362 152.2 137.362 153.289C137.362 154.377 136.956 155.427 136.222 156.231C135.101 157.419 133.487 157.845 132.013 156.932C130.539 156.018 129.564 155.811 129.491 154.337C129.433 153.065 129.683 151.798 130.219 150.643C130.42 150.246 130.739 149.921 131.133 149.713Z" fill="#159AD5" stroke="#263238" stroke-width="0.462161" stroke-miterlimit="10" stroke-linecap="round"/>
<path d="M107.935 115.855L101.933 122.429L107.935 119.548" stroke="#263238" stroke-width="0.462161" stroke-miterlimit="10" stroke-linecap="round"/>
<path d="M132.836 127.883L133.049 117.032" stroke="#263238" stroke-width="0.462161" stroke-miterlimit="10" stroke-linecap="round"/>
<path d="M132.853 118.674C132.853 119.958 131.452 120.994 129.72 120.994C127.988 120.994 126.592 119.958 126.592 118.674C126.592 117.391 127.993 116.354 129.72 116.354C131.446 116.354 132.853 117.396 132.853 118.674Z" fill="#159AD5" stroke="#263238" stroke-width="0.462161" stroke-miterlimit="10" stroke-linecap="round"/>
<path d="M131.328 118.674C131.328 119.33 130.605 119.862 129.72 119.862C128.834 119.862 128.117 119.302 128.117 118.674C128.117 118.046 128.834 117.486 129.72 117.486C130.605 117.486 131.328 118.018 131.328 118.674Z" fill="white" stroke="#263238" stroke-width="0.462161" stroke-miterlimit="10" stroke-linecap="round"/>
<path d="M156.431 178.089L189.958 181.177L189.387 235.055L155.383 179.922L156.431 178.089Z" fill="white" stroke="#263238" stroke-width="0.462161" stroke-miterlimit="10" stroke-linecap="round"/>
<path d="M171.644 198.625L172.871 200.228" stroke="#263238" stroke-width="0.462161" stroke-miterlimit="10" stroke-linecap="round"/>
<path d="M158.729 181.822L170.18 196.725" stroke="#263238" stroke-width="0.462161" stroke-miterlimit="10" stroke-linecap="round"/>
<path d="M161.633 181.049L168.998 182.405" stroke="#263238" stroke-width="0.462161" stroke-miterlimit="10" stroke-linecap="round"/>
<path d="M176.01 191.838L177.91 193.06" stroke="#263238" stroke-width="0.462161" stroke-miterlimit="10" stroke-linecap="round"/>
<path d="M164.347 184.344L175.018 191.204" stroke="#263238" stroke-width="0.462161" stroke-miterlimit="10" stroke-linecap="round"/>
<path d="M153.457 176.122L156.517 179.11" stroke="#263238" stroke-width="2.31081" stroke-miterlimit="10" stroke-linecap="round"/>
<path d="M120.445 143.85L153.457 176.122" stroke="#263238" stroke-width="1.38648" stroke-miterlimit="10" stroke-linecap="round"/>
<path d="M104.028 142.237C104.028 142.237 95.952 141.968 95.1449 151.658C94.3379 161.348 104.796 227.881 84.5297 243.272C66.1744 257.199 48.1722 254.924 36.5874 249.555C27.1435 245.172 56.355 242.308 69.7614 245.805C79.4687 248.339 59.9364 254.156 40.5555 254.212C18.2826 254.263 6.63046 246.366 0.980957 245.805" stroke="#263238" stroke-width="1.38648" stroke-miterlimit="10" stroke-linecap="round"/>
<path d="M109.084 143.531L114.257 141.967L118.814 145.84C119.039 146.032 119.328 146.131 119.623 146.119C119.918 146.106 120.198 145.983 120.406 145.773L122.861 143.318C122.973 143.209 123.063 143.078 123.124 142.934C123.185 142.789 123.216 142.634 123.216 142.477C123.216 142.321 123.185 142.165 123.124 142.021C123.063 141.876 122.973 141.746 122.861 141.637C121.252 140.022 117.519 136.592 114.252 135.752C109.942 134.676 105.906 137.635 105.906 137.635L109.084 143.531Z" fill="#263238" stroke="#263238" stroke-width="0.462161" stroke-miterlimit="10" stroke-linecap="round"/>
<path d="M91.0254 124.42L105.329 135.506C105.329 135.506 108.013 136.223 108.904 137.114C109.795 138.005 113.388 140.869 112.301 141.945C111.213 143.021 112.48 142.657 111.23 143.016C109.98 143.374 109.084 143.576 109.084 143.576C109.084 143.576 106.046 144.826 104.258 144.647C102.47 144.467 99.6062 140.359 99.6062 139.462C99.6062 138.566 84.9444 130.344 84.4063 129.268C83.8683 128.191 88.89 121.225 88.89 121.225" fill="white"/>
<path d="M91.0254 124.42L105.329 135.506C105.329 135.506 108.013 136.223 108.904 137.114C109.795 138.005 113.388 140.869 112.301 141.945C111.213 143.021 112.48 142.657 111.23 143.016C109.98 143.374 109.084 143.576 109.084 143.576C109.084 143.576 106.046 144.826 104.258 144.647C102.47 144.467 99.6062 140.359 99.6062 139.462C99.6062 138.566 84.9444 130.344 84.4063 129.268C83.8683 128.191 88.89 121.225 88.89 121.225" stroke="#263238" stroke-width="0.462161" stroke-miterlimit="10" stroke-linecap="round"/>
<path d="M100.409 129.855L94.1987 136.861L99.6072 139.417C99.6072 139.417 100.728 142.275 102.006 143.71C103.284 145.145 103.278 145.621 104.551 145.621C105.823 145.621 110.155 144.187 110.155 144.187C110.155 144.187 110.48 144.495 112.397 143.234C114.314 141.973 113.355 141.16 112.56 139.871C111.764 138.582 107.779 135.729 106.669 134.933C105.559 134.137 105.072 133.661 104.595 133.342C104.119 133.022 100.409 129.855 100.409 129.855Z" fill="#159AD5" stroke="#263238" stroke-width="0.462161" stroke-miterlimit="10" stroke-linecap="round"/>
<path d="M130.186 102.757C126.072 101.327 124.643 99.7188 124.643 99.7188L121.246 95.2351C119.941 95.2024 118.669 95.649 117.67 96.4905L117.312 99.7076C117.312 99.7076 116.931 99.7917 116.281 99.9094C117.116 101.697 120.277 108.877 125.001 109.006C128.364 109.112 130.472 105.867 131.615 103.295C131.161 103.121 130.673 102.93 130.186 102.757Z" fill="white" stroke="#263238" stroke-width="0.462161" stroke-miterlimit="10" stroke-linecap="round"/>
<path d="M134.3 95.4265L132.691 100.258L130.724 99.6972C130.724 99.6972 130.164 103.99 129.116 104.523C128.068 105.055 126.969 105.24 124.822 103.632C122.676 102.023 120.529 100.056 120.529 98.268C120.529 96.4801 121.605 89.861 122.676 88.4318C123.746 87.0026 134.3 95.4265 134.3 95.4265Z" fill="white" stroke="#263238" stroke-width="0.462161" stroke-miterlimit="10" stroke-linecap="round"/>
<path d="M130.628 96.0592C130.538 96.586 130.23 96.9784 129.933 96.9279C129.636 96.8775 129.468 96.4067 129.557 95.8799C129.647 95.353 129.955 94.9551 130.252 95.0055C130.549 95.056 130.717 95.5268 130.628 96.0592Z" fill="#263238"/>
<path d="M126.789 90.4207C126.789 90.4207 126.072 92.5673 124.105 92.7466C122.138 92.926 120.888 90.2414 120.888 90.2414L120.529 98.2897L117.671 96.5018C117.671 96.5018 118.203 89.7033 118.92 87.7361C119.638 85.7688 122.496 84.8777 122.496 84.8777C122.496 84.8777 125.54 88.2741 126.789 90.4207Z" fill="#263238" stroke="#263238" stroke-width="0.462161" stroke-miterlimit="10" stroke-linecap="round"/>
<path d="M121.246 95.2753C118.203 94.7148 118.92 90.7915 120.887 90.2703C122.855 89.7491 122.137 92.9493 122.137 92.9493" fill="white"/>
<path d="M121.246 95.2753C118.203 94.7148 118.92 90.7915 120.887 90.2703C122.855 89.7491 122.137 92.9493 122.137 92.9493" stroke="#263238" stroke-width="0.462161" stroke-miterlimit="10" stroke-linecap="round"/>
<path d="M118.903 87.7369L128.022 92.5681C129.55 93.228 131.189 93.5913 132.853 93.6386C134.182 93.6664 135.507 93.4771 136.776 93.0781L138.02 87.6977C138.132 87.2112 138.139 86.7068 138.043 86.2172C137.946 85.7276 137.748 85.2638 137.46 84.8561C136.189 83.0023 134.635 81.3605 132.853 79.9912C129.456 77.4916 124.294 79.2458 121.436 80.8544C118.578 82.4629 118.903 87.7369 118.903 87.7369Z" fill="#159AD5" stroke="#263238" stroke-width="0.462161" stroke-miterlimit="10" stroke-linecap="round"/>
<path d="M136.748 88.4482C136.519 89.7092 134.955 90.4771 133.257 90.1688C131.558 89.8605 130.365 88.5827 130.594 87.3216C130.824 86.0606 132.388 85.2928 134.086 85.601C135.784 85.9093 136.978 87.1871 136.748 88.4482Z" fill="#159AD5" stroke="#263238" stroke-width="0.462161" stroke-miterlimit="10" stroke-linecap="round"/>
<path d="M135.248 88.1734C135.13 88.8179 134.329 89.2158 133.46 89.0533C132.591 88.8908 131.975 88.2462 132.092 87.5961C132.21 86.9459 133.011 86.5536 133.886 86.7161C134.76 86.8787 135.371 87.5288 135.248 88.1734Z" fill="white" stroke="#263238" stroke-width="0.462161" stroke-miterlimit="10" stroke-linecap="round"/>
<path d="M126.61 92.0296C128.726 91.5852 130.888 91.397 133.049 91.4691C136.266 91.6484 139.119 94.5068 139.119 94.5068C139.119 94.5068 141.922 97.3428 141.731 97.8696C141.54 98.3965 137.516 97.5445 134.837 97.3652C132.158 97.1858 126.61 92.0296 126.61 92.0296Z" fill="#159AD5" stroke="#263238" stroke-width="0.462161" stroke-miterlimit="10" stroke-linecap="round"/>
<path d="M127.239 98.9124C127.411 99.4737 127.737 99.9756 128.179 100.361C128.622 100.746 129.164 101 129.744 101.093" stroke="#263238" stroke-width="0.462161" stroke-miterlimit="10" stroke-linecap="round"/>
<path d="M126.43 104.797L126.038 107.919L129.115 104.545L126.43 104.797Z" fill="#263238"/>
<path d="M129.843 153.877C129.843 153.877 128.162 156.45 129.131 157.341C129.793 157.946 131.934 159.022 133.245 159.616C133.549 159.759 133.892 159.798 134.221 159.726C134.549 159.654 134.845 159.476 135.061 159.218C135.511 158.745 135.879 158.199 136.148 157.604C136.328 156.892 134.635 155.295 134.635 155.295L133.929 155.564C133.929 155.564 131.261 152.807 130.729 152.896C130.196 152.986 129.843 153.877 129.843 153.877Z" fill="#159AD5" stroke="#263238" stroke-width="0.462161" stroke-miterlimit="10" stroke-linecap="round"/>
<path d="M134.776 153.99C134.776 153.99 133.587 155.402 134.064 155.777C134.54 156.153 136.065 157.711 136.351 157.425C136.636 157.139 137.64 156.641 137.068 155.923C136.496 155.206 135.566 153.922 134.776 153.99Z" fill="#159AD5" stroke="#263238" stroke-width="0.462161" stroke-miterlimit="10" stroke-linecap="round"/>
<path d="M328.01 190.553L328.01 222.5L203.284 222.5L203.284 190.553L179.834 190.553L179.834 237.184C179.832 238.045 180.001 238.898 180.329 239.694C180.658 240.49 181.14 241.213 181.749 241.822C182.358 242.431 183.081 242.914 183.876 243.243C184.672 243.573 185.525 243.742 186.386 243.741L196.732 243.741C198.469 243.741 200.134 243.052 201.363 241.824C202.591 240.597 203.282 238.932 203.284 237.195L203.284 235.043L214.644 235.043L219.963 231.68L310.848 231.68L317.619 235.547L328.01 235.547L328.01 237.229C328.011 238.965 328.702 240.63 329.931 241.858C331.159 243.085 332.825 243.775 334.562 243.775L344.908 243.775C345.768 243.776 346.62 243.607 347.415 243.278C348.21 242.95 348.932 242.467 349.54 241.86C350.149 241.252 350.632 240.53 350.961 239.735C351.29 238.94 351.46 238.089 351.46 237.229L351.46 190.553L328.01 190.553Z" fill="#263238" stroke="#263238" stroke-width="0.462161" stroke-miterlimit="10" stroke-linecap="round"/>
<path d="M346.622 167.602C345.658 165.663 337.924 157.688 337.924 157.688C337.924 157.688 323.211 129.631 320.762 125.057C316.11 116.381 308.432 117.805 308.432 117.805L265.405 115.63L265.164 115.698L264.923 115.63L221.896 117.805C221.896 117.805 214.016 116.998 209.566 125.057C207.055 129.597 192.404 157.688 192.404 157.688C192.404 157.688 184.67 165.663 183.7 167.602C182.731 169.542 178.875 176.783 178.875 178.223C178.875 179.518 179.833 201.499 184.137 217.91C184.624 219.72 185.545 221.384 186.821 222.757C188.096 224.13 189.688 225.171 191.457 225.79C192.312 226.134 193.198 226.395 194.102 226.569L225.528 226.569L233.503 212.793C236.559 210.26 240.413 208.89 244.382 208.926L285.957 208.926C289.926 208.89 293.78 210.26 296.836 212.793L304.811 226.569L336.237 226.569C337.14 226.395 338.024 226.134 338.876 225.79C340.647 225.172 342.24 224.132 343.516 222.758C344.793 221.385 345.715 219.721 346.202 217.91C350.506 201.499 351.465 179.518 351.465 178.223C351.459 176.783 347.575 169.536 346.622 167.602Z" fill="#159AD5" stroke="#263238" stroke-width="0.462161" stroke-miterlimit="10" stroke-linecap="round"/>
<path d="M225.522 226.581L223.841 230.448L306.016 230.448L304.806 226.581L296.83 212.804C296.83 212.804 293.686 209.178 285.952 208.937C278.217 208.696 244.376 208.937 244.376 208.937C240.396 208.835 236.52 210.213 233.498 212.804L225.522 226.581Z" fill="#787878" stroke="#263238" stroke-width="0.462161" stroke-miterlimit="10" stroke-linecap="round"/>
<path d="M232.528 180.656C232.528 180.656 239.057 192.257 240.991 194.191C242.925 196.125 245.099 196.125 247.762 196.366C250.424 196.607 286.916 196.366 286.916 196.366C286.916 196.366 289.819 195.884 291.271 193.709C292.722 191.534 297.553 180.656 297.553 180.656L232.528 180.656Z" fill="#263238" stroke="#263238" stroke-width="0.462161" stroke-miterlimit="10" stroke-linecap="round"/>
<path d="M239.008 182.231C239.008 182.231 244.231 191.518 245.784 193.071C247.336 194.623 249.074 194.618 251.203 194.814C253.333 195.01 282.561 194.814 282.561 194.814C282.561 194.814 284.887 194.427 286.047 192.684C287.208 190.941 291.092 182.231 291.092 182.231L239.008 182.231Z" fill="#787878" stroke="#263238" stroke-width="0.462161" stroke-miterlimit="10" stroke-linecap="round"/>
<path d="M292.313 222.501L290.867 218.505C290.419 217.273 289.597 216.213 288.517 215.471C287.437 214.73 286.152 214.344 284.842 214.368L245.581 214.766C244.233 214.794 242.929 215.255 241.863 216.082C240.797 216.909 240.025 218.057 239.663 219.356L238.688 222.501L292.313 222.501Z" fill="#263238" stroke="#263238" stroke-width="0.462161" stroke-miterlimit="10" stroke-linecap="round"/>
<path d="M238.082 224.406L236.882 228.273L294.409 228.273L293.013 224.406L238.082 224.406Z" fill="#263238" stroke="#263238" stroke-width="0.462161" stroke-miterlimit="10" stroke-linecap="round"/>
<path d="M337.924 157.688C337.924 157.688 339.129 148.261 341.286 148.261C343.444 148.261 353.129 150.923 353.37 152.857C353.611 154.79 351.436 156.965 349.503 157.447C347.569 157.929 343.461 158.417 343.461 158.417L342.531 162.043L337.924 157.688Z" fill="#159AD5" stroke="#263238" stroke-width="0.462161" stroke-miterlimit="10" stroke-linecap="round"/>
<path d="M192.404 157.688C192.404 157.688 191.193 148.261 189.041 148.261C186.889 148.261 177.198 150.923 176.957 152.857C176.716 154.79 178.891 156.965 180.825 157.447C182.758 157.929 186.866 158.417 186.866 158.417L187.83 162.043L192.404 157.688Z" fill="#159AD5" stroke="#263238" stroke-width="0.462161" stroke-miterlimit="10" stroke-linecap="round"/>
<path d="M198.928 152.128C198.928 152.128 293.204 148.502 330.671 152.128L314.233 122.177C314.233 122.177 271.688 116.858 216.336 122.418C216.336 122.395 204.975 140.286 198.928 152.128Z" fill="white" stroke="#263238" stroke-width="0.462161" stroke-miterlimit="10" stroke-linecap="round"/>
<path d="M220.445 179.445C220.445 179.445 224.794 184.035 226.246 192.498C226.246 192.498 205.699 191.529 197.724 188.39C189.748 185.252 188.756 185.027 188.537 183.553C188.319 182.079 189.019 171.711 192.164 170.018C195.308 168.326 198.688 168.808 201.832 171.223C204.976 173.639 208.843 177.271 211.018 177.994C213.192 178.717 220.445 179.445 220.445 179.445Z" fill="white" stroke="#263238" stroke-width="0.462161" stroke-miterlimit="10" stroke-linecap="round"/>
<path d="M204.706 184.153C206.919 181.94 206.919 178.353 204.706 176.14C202.493 173.927 198.905 173.927 196.692 176.14C194.48 178.353 194.48 181.94 196.692 184.153C198.905 186.366 202.493 186.366 204.706 184.153Z" fill="white" stroke="#263238" stroke-width="0.462161" stroke-miterlimit="10" stroke-linecap="round"/>
<path d="M216.482 187.23C216.482 187.751 216.327 188.261 216.037 188.694C215.747 189.127 215.336 189.465 214.854 189.664C214.372 189.863 213.842 189.915 213.331 189.813C212.82 189.711 212.351 189.46 211.983 189.091C211.615 188.722 211.364 188.252 211.263 187.74C211.162 187.229 211.215 186.699 211.415 186.218C211.615 185.737 211.954 185.326 212.388 185.037C212.822 184.748 213.332 184.595 213.853 184.596C214.199 184.596 214.541 184.664 214.86 184.796C215.179 184.929 215.469 185.123 215.714 185.368C215.958 185.612 216.151 185.903 216.283 186.222C216.415 186.542 216.482 186.884 216.482 187.23Z" fill="white" stroke="#263238" stroke-width="0.462161" stroke-miterlimit="10" stroke-linecap="round"/>
<path d="M310.583 179.445C310.583 179.445 306.228 184.035 304.777 192.498C304.777 192.498 325.323 191.529 333.304 188.39C341.285 185.252 342.272 185.027 342.49 183.553C342.709 182.079 342.003 171.711 338.864 170.018C335.726 168.326 332.335 168.808 329.191 171.223C326.046 173.639 322.185 177.271 320.01 177.994C317.835 178.717 310.583 179.445 310.583 179.445Z" fill="white" stroke="#263238" stroke-width="0.462161" stroke-miterlimit="10" stroke-linecap="round"/>
<path d="M332.915 185.669C335.96 184.947 337.843 181.893 337.121 178.848C336.399 175.803 333.345 173.92 330.3 174.642C327.255 175.364 325.372 178.418 326.094 181.463C326.816 184.508 329.87 186.391 332.915 185.669Z" fill="white" stroke="#263238" stroke-width="0.462161" stroke-miterlimit="10" stroke-linecap="round"/>
<path d="M315.829 187.23C315.829 187.751 315.984 188.261 316.273 188.694C316.563 189.127 316.975 189.465 317.457 189.664C317.938 189.863 318.468 189.915 318.979 189.813C319.49 189.711 319.96 189.46 320.328 189.091C320.696 188.722 320.947 188.252 321.048 187.74C321.149 187.229 321.096 186.699 320.895 186.218C320.695 185.737 320.357 185.326 319.923 185.037C319.489 184.748 318.979 184.595 318.458 184.596C318.112 184.596 317.77 184.664 317.451 184.796C317.131 184.929 316.841 185.123 316.597 185.368C316.353 185.612 316.159 185.903 316.028 186.222C315.896 186.542 315.828 186.884 315.829 187.23Z" fill="white" stroke="#263238" stroke-width="0.462161" stroke-miterlimit="10" stroke-linecap="round"/>
<path d="M336.472 200.956C336.472 200.956 313.992 205.311 313.022 206.034C312.053 206.757 310.125 210.87 310.125 210.87L314.715 209.66C314.715 209.66 325.364 210.142 328.979 208.449C332.594 206.757 336.472 200.956 336.472 200.956Z" fill="#263238" stroke="#263238" stroke-width="0.462161" stroke-miterlimit="10" stroke-linecap="round"/>
<path d="M195.549 200.956C195.549 200.956 218.029 205.311 218.993 206.034C219.957 206.757 221.896 210.87 221.896 210.87L217.3 209.66C217.3 209.66 206.651 210.142 203.042 208.449C199.433 206.757 195.549 200.956 195.549 200.956Z" fill="#263238" stroke="#263238" stroke-width="0.462161" stroke-miterlimit="10" stroke-linecap="round"/>
<path d="M308.298 183.167L302.295 181.166L297.553 181.166" stroke="#263238" stroke-width="0.462161" stroke-miterlimit="10" stroke-linecap="round"/>
<path d="M223.106 182.88L227.108 180.594L232.527 180.65" stroke="#263238" stroke-width="0.462161" stroke-miterlimit="10" stroke-linecap="round"/>
<path d="M325.313 156.13C325.924 155.782 326.541 155.452 327.163 155.149" stroke="#263238" stroke-width="0.462161" stroke-miterlimit="10" stroke-linecap="round"/>
<path d="M298.702 190.447C302.485 182.13 311.133 165.596 323.217 157.436" stroke="#263238" stroke-width="0.462161" stroke-miterlimit="10" stroke-linecap="round"/>
<path d="M296.573 195.458C296.573 195.458 296.87 194.668 297.447 193.294" stroke="#263238" stroke-width="0.462161" stroke-miterlimit="10" stroke-linecap="round"/>
<path d="M207.071 157.436C206.066 156.823 205.027 156.251 203.955 155.721" stroke="#263238" stroke-width="0.462161" stroke-miterlimit="10" stroke-linecap="round"/>
<path d="M231.283 190.626C228.806 183.228 222.355 167.922 209.201 158.814" stroke="#263238" stroke-width="0.462161" stroke-miterlimit="10" stroke-linecap="round"/>
<path d="M232.539 194.886C232.539 194.886 232.365 194.118 231.978 192.784" stroke="#263238" stroke-width="0.462161" stroke-miterlimit="10" stroke-linecap="round"/>
<path d="M197.095 169.155C197.095 169.155 194.523 162.867 194.523 159.151L197.095 169.155Z" fill="white"/>
<path d="M197.095 169.155C197.095 169.155 194.523 162.867 194.523 159.151" stroke="#263238" stroke-width="0.462161" stroke-miterlimit="10" stroke-linecap="round"/>
<path d="M334.594 168.869C335.288 166.239 335.765 163.557 336.023 160.849L334.594 168.869Z" fill="white"/>
<path d="M334.594 168.869C335.288 166.239 335.765 163.557 336.023 160.849" stroke="#263238" stroke-width="0.462161" stroke-miterlimit="10" stroke-linecap="round"/>
<path d="M343.461 195.744L341.746 218.017L310.023 219.468C310.023 219.468 304.592 212.894 304.307 210.036C304.021 207.177 308.022 202.89 309.166 202.604C310.309 202.318 330.318 198.316 330.318 198.316" stroke="#263238" stroke-width="0.462161" stroke-miterlimit="10" stroke-linecap="round"/>
<path d="M188.217 195.744L189.932 218.017L221.666 219.446C221.666 219.446 227.097 212.872 227.382 210.013C227.668 207.155 223.667 202.867 222.523 202.581C221.38 202.295 201.366 198.294 201.366 198.294" stroke="#263238" stroke-width="0.462161" stroke-miterlimit="10" stroke-linecap="round"/>
<path d="M241.266 186.07L264.592 187.936C265.583 188.015 266.578 188.015 267.569 187.936L289.068 186.255" stroke="#263238" stroke-width="0.462161" stroke-miterlimit="10" stroke-linecap="round"/>
<path d="M242.801 188.48L264.591 190.223C265.582 190.304 266.577 190.304 267.568 190.223L288.305 188.615" stroke="#263238" stroke-width="0.462161" stroke-miterlimit="10" stroke-linecap="round"/>
<path d="M244.365 190.923L264.592 192.543C265.582 192.619 266.577 192.619 267.568 192.543L287.268 191.013" stroke="#263238" stroke-width="0.462161" stroke-miterlimit="10" stroke-linecap="round"/>
<path d="M257.731 137.388C246.92 143.744 217.378 149.404 202.105 152.016C218.841 151.422 297.295 148.9 330.67 152.128L315.953 125.288C294.554 123.858 268.823 130.864 257.731 137.388Z" fill="#787878"/>
<path d="M198.928 152.128C198.928 152.128 293.204 148.502 330.671 152.128L314.233 122.177C314.233 122.177 271.688 116.858 216.336 122.418C216.336 122.395 204.975 140.286 198.928 152.128Z" stroke="#263238" stroke-width="0.462161" stroke-miterlimit="10" stroke-linecap="round"/>
<path d="M228.341 155.849C228.341 155.849 228.902 157.502 233.307 161.644C237.712 165.786 241.31 159.991 246.007 157.502C250.704 155.014 245.178 152.811 262.014 164.957C278.851 177.102 286.299 179.585 292.924 172.405C299.549 165.226 308.931 154.47 313.347 156.953C317.764 159.436 320.527 164.127 324.388 164.127C328.25 164.127 333.221 156.398 333.221 156.398" stroke="white" stroke-width="0.462161" stroke-miterlimit="10" stroke-linecap="round"/>
<path d="M228.341 157.228C228.341 157.228 228.902 158.91 233.307 163.024C237.712 167.137 241.31 161.37 246.007 158.887C250.704 156.404 245.178 154.191 262.014 166.336C278.851 178.481 286.299 180.964 292.924 173.79C299.549 166.616 308.931 155.855 313.347 158.332C317.764 160.81 320.527 165.506 324.388 165.506C328.25 165.506 333.221 157.783 333.221 157.783" stroke="#263238" stroke-width="0.462161" stroke-miterlimit="10" stroke-linecap="round"/>
<path d="M191.62 163.433C191.62 163.433 182.882 171.756 183.089 178.414C183.297 185.072 189.333 186.115 190.375 190.901C191.418 195.687 201.82 198.809 212.015 196.102C222.21 193.395 226.587 196.102 229.703 201.707C232.82 207.312 238.021 207.754 242.207 205.686" stroke="#263238" stroke-width="0.462161" stroke-miterlimit="10" stroke-linecap="round"/>
<path d="M192.662 162.39C192.662 162.39 183.918 170.718 184.131 177.377C184.344 184.035 190.369 185.072 191.417 189.858C192.465 194.645 202.856 197.766 213.063 195.037C223.269 192.307 227.635 195.037 230.751 200.641C233.867 206.246 239.074 206.672 243.232 204.593" stroke="white" stroke-width="0.462161" stroke-miterlimit="10" stroke-linecap="round"/>
<path d="M344.974 173.628C344.974 173.628 343.102 188.2 337.486 190.902C331.87 193.603 308.768 195.688 303.359 199.432C297.951 203.176 297.755 211.291 297.755 211.291" stroke="white" stroke-width="0.462161" stroke-miterlimit="10" stroke-linecap="round"/>
<path d="M344.974 174.861C344.974 174.861 343.091 189.433 337.486 192.151C331.881 194.869 308.768 196.932 303.359 200.681C297.951 204.431 297.755 212.541 297.755 212.541" stroke="#263238" stroke-width="0.462161" stroke-miterlimit="10" stroke-linecap="round"/>
<path d="M270.074 120.742C270.074 120.742 273.381 120.182 275.326 125.405C277.271 130.629 280.768 143.295 286.603 143.486C292.437 143.676 293.407 132.209 296.691 127.546C299.975 122.883 306.219 123.853 309.907 126.986" stroke="white" stroke-width="0.462161" stroke-miterlimit="10" stroke-linecap="round"/>
<path d="M269.878 121.908C269.878 121.908 273.184 121.348 275.129 126.571C277.074 131.795 280.571 144.461 286.406 144.652C292.24 144.842 293.21 133.386 296.517 128.712C299.823 124.038 306.045 125.019 309.738 128.152" stroke="#263238" stroke-width="0.462161" stroke-miterlimit="10" stroke-linecap="round"/>
<path d="M198.328 161.908C198.328 161.908 200.872 163.69 204.185 167.765C207.497 171.839 208.764 169.799 210.294 166.745C211.824 163.69 215.383 170.309 218.437 174.894C221.492 179.479 222.26 180.241 222.77 177.696" stroke="white" stroke-width="0.462161" stroke-miterlimit="10" stroke-linecap="round"/>
<path d="M198.228 162.911C198.228 162.911 200.772 164.693 204.085 168.762C207.397 172.831 208.664 170.803 210.194 167.748C211.724 164.693 215.283 171.313 218.343 175.892C221.403 180.471 222.16 181.238 222.67 178.694" stroke="#263238" stroke-width="0.462161" stroke-miterlimit="10" stroke-linecap="round"/>
</svg>
