<svg width="15" height="15" viewBox="0 0 15 15" fill="none" xmlns="http://www.w3.org/2000/svg">
<path d="M7.48633 0C9.51704 0 9.77131 0.0101406 10.5713 0.0458984C11.1931 0.0592287 11.8076 0.175934 12.3887 0.394531C13.3941 0.78371 14.1881 1.57958 14.5781 2.58496C14.8009 3.17364 14.9176 3.79833 14.9268 4.42773C14.9733 5.22324 14.9729 5.48135 14.9746 7.51172C14.9746 9.54309 14.9645 9.79682 14.9287 10.5967C14.9162 11.2194 14.7987 11.833 14.5801 12.415C14.1901 13.4196 13.396 14.2155 12.3906 14.6055C11.8085 14.8242 11.1934 14.9407 10.5723 14.9531C9.77843 14.9997 9.51767 15 7.4873 15C5.4568 15 5.20312 14.9889 4.40234 14.9531C3.77868 14.9332 3.16373 14.8053 2.58496 14.5791C1.57894 14.1899 0.784489 13.395 0.394531 12.3906C0.17589 11.8078 0.0593916 11.1941 0.046875 10.5723C0.00030659 9.77728 0 9.51704 0 7.48633C1.33238e-06 5.45596 0.0111193 5.20213 0.046875 4.40137C0.0585336 3.78043 0.175972 3.16602 0.394531 2.58496C0.78371 1.57958 1.57958 0.78371 2.58496 0.394531C3.16602 0.175973 3.78042 0.0592188 4.40137 0.0458984C5.19548 0.000164426 5.45596 1.80555e-10 7.48633 0ZM7.48145 3.6377C5.35776 3.63784 3.63776 5.35872 3.6377 7.48242C3.6377 9.60618 5.35772 11.327 7.48145 11.3271C9.60363 11.3271 11.3262 9.60627 11.3262 7.48242C11.3261 5.35863 9.60359 3.6377 7.48145 3.6377ZM7.48145 4.98535C8.8606 4.98535 9.97847 6.10328 9.97852 7.48242C9.97852 8.8616 8.86063 9.97949 7.48145 9.97949C6.10236 9.97937 4.98438 8.86153 4.98438 7.48242C4.98442 6.10335 6.10239 4.98547 7.48145 4.98535ZM11.4795 2.59961C10.983 2.59961 10.583 3.00047 10.583 3.49609C10.5831 3.99165 10.9831 4.39258 11.4795 4.39258C11.9741 4.39237 12.3749 3.99153 12.375 3.49609C12.375 3.0006 11.9741 2.59981 11.4795 2.59961Z" fill="#343844"/>
</svg>
