<svg width="15" height="15" viewBox="0 0 15 15" fill="none" xmlns="http://www.w3.org/2000/svg">
<path fill-rule="evenodd" clip-rule="evenodd" d="M12.5 0C13.163 0 13.7989 0.263392 14.2678 0.732233C14.7366 1.20107 15 1.83696 15 2.5V12.5C15 13.163 14.7366 13.7989 14.2678 14.2678C13.7989 14.7366 13.163 15 12.5 15H2.5C1.83696 15 1.20107 14.7366 0.732233 14.2678C0.263392 13.7989 0 13.163 0 12.5V2.5C0 1.83696 0.263392 1.20107 0.732233 0.732233C1.20107 0.263392 1.83696 0 2.5 0H12.5ZM4.16667 5.83333C3.94565 5.83333 3.73369 5.92113 3.57741 6.07741C3.42113 6.23369 3.33333 6.44565 3.33333 6.66667V10.8333C3.33333 11.0543 3.42113 11.2663 3.57741 11.4226C3.73369 11.5789 3.94565 11.6667 4.16667 11.6667C4.38768 11.6667 4.59964 11.5789 4.75592 11.4226C4.9122 11.2663 5 11.0543 5 10.8333V6.66667C5 6.44565 4.9122 6.23369 4.75592 6.07741C4.59964 5.92113 4.38768 5.83333 4.16667 5.83333ZM6.66667 5C6.44565 5 6.23369 5.0878 6.07741 5.24408C5.92113 5.40036 5.83333 5.61232 5.83333 5.83333V10.8333C5.83333 11.0543 5.92113 11.2663 6.07741 11.4226C6.23369 11.5789 6.44565 11.6667 6.66667 11.6667C6.88768 11.6667 7.09964 11.5789 7.25592 11.4226C7.4122 11.2663 7.5 11.0543 7.5 10.8333V7.78333C7.82511 7.42969 8.2205 7.14784 8.66083 6.95583C8.93833 6.8375 9.35583 6.78917 9.64583 6.88083C9.74204 6.90524 9.82772 6.96022 9.89 7.0375C9.93333 7.09583 10 7.22583 10 7.5V10.8333C10 11.0543 10.0878 11.2663 10.2441 11.4226C10.4004 11.5789 10.6123 11.6667 10.8333 11.6667C11.0543 11.6667 11.2663 11.5789 11.4226 11.4226C11.5789 11.2663 11.6667 11.0543 11.6667 10.8333V7.5C11.6667 6.94167 11.525 6.445 11.23 6.04667C10.9585 5.68546 10.5786 5.4206 10.1458 5.29083C9.39417 5.055 8.56167 5.18583 8.00583 5.42417C7.82774 5.50039 7.65437 5.58721 7.48667 5.68417C7.45173 5.49216 7.35052 5.3185 7.20066 5.19347C7.05081 5.06844 6.86183 4.99997 6.66667 5ZM4.16667 3.33333C3.94565 3.33333 3.73369 3.42113 3.57741 3.57741C3.42113 3.73369 3.33333 3.94565 3.33333 4.16667C3.33333 4.38768 3.42113 4.59964 3.57741 4.75592C3.73369 4.9122 3.94565 5 4.16667 5C4.38768 5 4.59964 4.9122 4.75592 4.75592C4.9122 4.59964 5 4.38768 5 4.16667C5 3.94565 4.9122 3.73369 4.75592 3.57741C4.59964 3.42113 4.38768 3.33333 4.16667 3.33333Z" fill="#343844"/>
</svg>
