<svg width="1352" height="133" viewBox="0 0 1352 133" fill="none" xmlns="http://www.w3.org/2000/svg">
<path d="M40.5 119V83H72.75C76.5833 83 80.0833 82.25 83.25 80.75C86.5833 79.0833 89.25 76.6667 91.25 73.5C93.25 70.1667 94.25 66.0833 94.25 61.25C94.25 56.4167 93.25 52.4167 91.25 49.25C89.25 45.9167 86.5833 43.5 83.25 42C80.0833 40.3333 76.5833 39.5 72.75 39.5H40.5V3.5H82.5C94 3.5 104.333 5.83333 113.5 10.5C122.833 15 130.167 21.5833 135.5 30.25C141 38.75 143.75 49.0833 143.75 61.25C143.75 73.25 141 83.5833 135.5 92.25C130.167 100.917 122.833 107.583 113.5 112.25C104.333 116.75 94 119 82.5 119H40.5ZM1.02073e-06 181.5V3.5H50V181.5H1.02073e-06ZM202.121 110.5V76H232.371C239.204 76 244.371 74.3333 247.871 71C251.538 67.6667 253.371 63.25 253.371 57.75C253.371 52.25 251.538 47.8333 247.871 44.5C244.371 41.1667 239.204 39.5 232.371 39.5H202.121V3.5H240.371C252.704 3.5 263.538 5.74999 272.871 10.25C282.204 14.75 289.538 21 294.871 29C300.204 37 302.871 46.3333 302.871 57C302.871 67.6667 300.121 77 294.621 85C289.288 93 281.788 99.25 272.121 103.75C262.454 108.25 251.038 110.5 237.871 110.5H202.121ZM161.621 181.5V3.5H211.621V181.5H161.621ZM257.621 181.5L209.121 105.5L254.121 95.75L314.371 181.5H257.621ZM415.148 185C401.148 185 388.232 182.667 376.398 178C364.732 173.333 354.482 166.833 345.648 158.5C336.982 150.167 330.232 140.333 325.398 129C320.565 117.667 318.148 105.417 318.148 92.25C318.148 78.9167 320.482 66.6667 325.148 55.5C329.982 44.3333 336.732 34.5833 345.398 26.25C354.065 17.9167 364.232 11.5 375.898 7C387.732 2.33333 400.648 -2.74181e-06 414.648 -2.74181e-06C428.648 -2.74181e-06 441.482 2.33333 453.148 7C464.982 11.5 475.232 17.9167 483.898 26.25C492.565 34.5833 499.232 44.4167 503.898 55.75C508.732 66.9167 511.148 79.1667 511.148 92.5C511.148 105.667 508.732 117.917 503.898 129.25C499.232 140.417 492.565 150.25 483.898 158.75C475.232 167.083 465.065 173.583 453.398 178.25C441.732 182.75 428.982 185 415.148 185ZM414.648 141C423.982 141 432.065 139 438.898 135C445.732 131 450.982 125.333 454.648 118C458.315 110.667 460.148 102.083 460.148 92.25C460.148 84.9167 459.065 78.3333 456.898 72.5C454.898 66.5 451.898 61.4167 447.898 57.25C443.898 52.9167 439.065 49.6667 433.398 47.5C427.898 45.1667 421.648 44 414.648 44C405.315 44 397.232 46 390.398 50C383.565 53.8333 378.315 59.4167 374.648 66.75C370.982 73.9167 369.148 82.4167 369.148 92.25C369.148 99.75 370.148 106.5 372.148 112.5C374.315 118.5 377.398 123.667 381.398 128C385.398 132.167 390.148 135.417 395.648 137.75C401.315 139.917 407.648 141 414.648 141ZM622.418 184.5C608.585 184.5 595.751 182.25 583.918 177.75C572.251 173.083 562.001 166.583 553.168 158.25C544.501 149.917 537.751 140.167 532.918 129C528.085 117.833 525.668 105.667 525.668 92.5C525.668 79.1667 528.168 66.9167 533.168 55.75C538.335 44.5833 545.418 34.9167 554.418 26.75C563.585 18.4167 574.168 12 586.168 7.49999C598.168 2.83332 611.001 0.499991 624.668 0.499991C641.168 0.499991 655.918 3.33332 668.918 8.99999C682.085 14.6667 692.751 22.3333 700.918 32L667.168 65.75C661.001 58.5833 654.585 53.25 647.918 49.75C641.251 46.25 633.251 44.5 623.918 44.5C615.085 44.5 607.085 46.5 599.918 50.5C592.751 54.3333 587.001 59.8333 582.668 67C578.501 74.1667 576.418 82.5833 576.418 92.25C576.418 101.917 578.335 110.417 582.168 117.75C586.168 124.917 591.668 130.5 598.668 134.5C605.668 138.5 613.835 140.5 623.168 140.5C632.168 140.5 639.751 138.75 645.918 135.25C652.085 131.75 656.751 126.75 659.918 120.25C663.251 113.75 664.918 106.083 664.918 97.25L699.168 119L616.418 116.5V76.5H715.168V84C715.168 105.333 711.251 123.5 703.418 138.5C695.751 153.5 684.918 164.917 670.918 172.75C657.085 180.583 640.918 184.5 622.418 184.5ZM733.887 181.5V3.5H783.887V181.5H733.887ZM774.637 181.5V139H857.887V181.5H774.637ZM958.85 185C944.85 185 931.933 182.667 920.1 178C908.433 173.333 898.183 166.833 889.35 158.5C880.683 150.167 873.933 140.333 869.1 129C864.266 117.667 861.85 105.417 861.85 92.25C861.85 78.9167 864.183 66.6667 868.85 55.5C873.683 44.3333 880.433 34.5833 889.1 26.25C897.766 17.9167 907.933 11.5 919.6 7C931.433 2.33333 944.35 -2.74181e-06 958.35 -2.74181e-06C972.35 -2.74181e-06 985.183 2.33333 996.85 7C1008.68 11.5 1018.93 17.9167 1027.6 26.25C1036.27 34.5833 1042.93 44.4167 1047.6 55.75C1052.43 66.9167 1054.85 79.1667 1054.85 92.5C1054.85 105.667 1052.43 117.917 1047.6 129.25C1042.93 140.417 1036.27 150.25 1027.6 158.75C1018.93 167.083 1008.77 173.583 997.1 178.25C985.433 182.75 972.683 185 958.85 185ZM958.35 141C967.683 141 975.766 139 982.6 135C989.433 131 994.683 125.333 998.35 118C1002.02 110.667 1003.85 102.083 1003.85 92.25C1003.85 84.9167 1002.77 78.3333 1000.6 72.5C998.6 66.5 995.6 61.4167 991.6 57.25C987.6 52.9167 982.766 49.6667 977.1 47.5C971.6 45.1667 965.35 44 958.35 44C949.016 44 940.933 46 934.1 50C927.266 53.8333 922.016 59.4167 918.35 66.75C914.683 73.9167 912.85 82.4167 912.85 92.25C912.85 99.75 913.85 106.5 915.85 112.5C918.016 118.5 921.1 123.667 925.1 128C929.1 132.167 933.85 135.417 939.35 137.75C945.016 139.917 951.35 141 958.35 141ZM1129.28 184.5C1114.11 184.5 1100.86 182.333 1089.53 178C1078.36 173.5 1068.03 166.417 1058.53 156.75L1089.78 125.5C1096.28 131.667 1103.11 136.417 1110.28 139.75C1117.44 142.917 1125.11 144.5 1133.28 144.5C1140.11 144.5 1145.28 143.5 1148.78 141.5C1152.28 139.333 1154.03 136.417 1154.03 132.75C1154.03 129.083 1152.53 126.083 1149.53 123.75C1146.53 121.25 1142.53 119.083 1137.53 117.25C1132.69 115.25 1127.28 113.25 1121.28 111.25C1115.44 109.25 1109.61 106.833 1103.78 104C1097.94 101.167 1092.53 97.75 1087.53 93.75C1082.69 89.5833 1078.78 84.5 1075.78 78.5C1072.78 72.3333 1071.28 64.8333 1071.28 56C1071.28 44.5 1074.03 34.5833 1079.53 26.25C1085.03 17.9167 1092.78 11.5833 1102.78 7.24999C1112.78 2.74999 1124.53 0.499991 1138.03 0.499991C1151.36 0.499991 1163.69 2.66666 1175.03 7C1186.53 11.1667 1196.03 17.1667 1203.53 25L1172.03 56.25C1166.53 50.9167 1161.03 47 1155.53 44.5C1150.03 41.8333 1144.03 40.5 1137.53 40.5C1132.36 40.5 1128.19 41.3333 1125.03 43C1122.03 44.6667 1120.53 47.1667 1120.53 50.5C1120.53 54 1122.03 56.9167 1125.03 59.25C1128.03 61.4167 1131.94 63.4167 1136.78 65.25C1141.78 67.0833 1147.19 69 1153.03 71C1159.03 73 1164.94 75.4167 1170.78 78.25C1176.61 80.9167 1181.94 84.4167 1186.78 88.75C1191.78 92.9167 1195.78 98.1667 1198.78 104.5C1201.78 110.833 1203.28 118.5 1203.28 127.5C1203.28 145.667 1196.78 159.75 1183.78 169.75C1170.94 179.583 1152.78 184.5 1129.28 184.5ZM1277.23 184.5C1262.06 184.5 1248.81 182.333 1237.48 178C1226.31 173.5 1215.98 166.417 1206.48 156.75L1237.73 125.5C1244.23 131.667 1251.06 136.417 1258.23 139.75C1265.39 142.917 1273.06 144.5 1281.23 144.5C1288.06 144.5 1293.23 143.5 1296.73 141.5C1300.23 139.333 1301.98 136.417 1301.98 132.75C1301.98 129.083 1300.48 126.083 1297.48 123.75C1294.48 121.25 1290.48 119.083 1285.48 117.25C1280.64 115.25 1275.23 113.25 1269.23 111.25C1263.39 109.25 1257.56 106.833 1251.73 104C1245.89 101.167 1240.48 97.75 1235.48 93.75C1230.64 89.5833 1226.73 84.5 1223.73 78.5C1220.73 72.3333 1219.23 64.8333 1219.23 56C1219.23 44.5 1221.98 34.5833 1227.48 26.25C1232.98 17.9167 1240.73 11.5833 1250.73 7.24999C1260.73 2.74999 1272.48 0.499991 1285.98 0.499991C1299.31 0.499991 1311.64 2.66666 1322.98 7C1334.48 11.1667 1343.98 17.1667 1351.48 25L1319.98 56.25C1314.48 50.9167 1308.98 47 1303.48 44.5C1297.98 41.8333 1291.98 40.5 1285.48 40.5C1280.31 40.5 1276.14 41.3333 1272.98 43C1269.98 44.6667 1268.48 47.1667 1268.48 50.5C1268.48 54 1269.98 56.9167 1272.98 59.25C1275.98 61.4167 1279.89 63.4167 1284.73 65.25C1289.73 67.0833 1295.14 69 1300.98 71C1306.98 73 1312.89 75.4167 1318.73 78.25C1324.56 80.9167 1329.89 84.4167 1334.73 88.75C1339.73 92.9167 1343.73 98.1667 1346.73 104.5C1349.73 110.833 1351.23 118.5 1351.23 127.5C1351.23 145.667 1344.73 159.75 1331.73 169.75C1318.89 179.583 1300.73 184.5 1277.23 184.5Z" fill="black" fill-opacity="0.1"/>
</svg>
